<?xml version="1.0" encoding="UTF-8"?>
<!-- Created with Inkscape (http://www.inkscape.org/) -->
<svg width="175.61mm" height="24.918mm" version="1.1" viewBox="0 0 175.61 24.918" xmlns="http://www.w3.org/2000/svg">
 <defs>
  <filter id="a" x="-.010629" y="-.082238" width="1.0219" height="1.1696" color-interpolation-filters="sRGB">
   <feGaussianBlur stdDeviation="0.49070655"/>
  </filter>
 </defs>
 <g filter="url(#a)" stroke="#010800" stroke-width="1.3229" aria-label="Nico Andresen Garten und Landschaftspflege">
  <path d="m55.227 1.8142-0.08388 0.36019q-0.13816 0.014802-0.4046 0.054275-0.26151 0.034539-0.51315 0.19243-0.21217 0.13322-0.36513 0.45887-0.14802 0.32565-0.29605 0.95229l-1.1595 5.0229h-0.82894l-3.0246-5.6101-0.79933 3.5032q-0.06414 0.27631-0.09868 0.51808t-0.03454 0.38486q0 0.2023 0.03947 0.31578 0.03947 0.10855 0.11348 0.18256 0.11348 0.11348 0.39473 0.19737 0.28618 0.08388 0.42434 0.10855l-0.083879 0.36019h-3.0098l0.08388-0.36019q0.13322-0.019737 0.4194-0.069078 0.29111-0.049341 0.49835-0.17763 0.2171-0.13816 0.36513-0.44901 0.14802-0.31578 0.29111-0.95722l0.75986-3.296q0.02467-0.11348 0.03947-0.21217 0.01974-0.10362 0.01974-0.1875 0-0.14802-0.03454-0.28125-0.034538-0.13816-0.12829-0.25164-0.13816-0.16776-0.34046-0.25657-0.2023-0.093748-0.47368-0.14309l0.08881-0.36019h2.5855l2.6447 4.9341 0.65624-2.8667q0.06908-0.31578 0.09868-0.51315 0.03454-0.2023 0.03454-0.37499 0-0.19243-0.04441-0.31085-0.039465-0.12335-0.11841-0.2023-0.10855-0.10855-0.38486-0.19243-0.27138-0.088814-0.4194-0.11348l0.08388-0.36019z"/>
  <path d="m58.371 8.1101-0.10855 0.44407q-0.48848 0.19243-0.77959 0.29111-0.29111 0.10362-0.67598 0.10362-0.5921 0-0.92268-0.28618-0.32565-0.29111-0.32565-0.73519 0-0.17269 0.02467-0.35032 0.02467-0.18256 0.07895-0.40953l0.4046-1.4408q0.05428-0.20723 0.08881-0.3898 0.03947-0.1875 0.03947-0.34046 0-0.27631-0.11348-0.38486-0.11348-0.10855-0.4342-0.10855-0.15789 0-0.32565 0.049341-0.16283 0.049341-0.28125 0.093749l0.10855-0.44407q0.39966-0.16283 0.76479-0.27631 0.36513-0.11842 0.69078-0.11842 0.58716 0 0.90294 0.28618 0.32072 0.28125 0.32072 0.73519 0 0.093749-0.02467 0.33059-0.01974 0.23684-0.07895 0.4342l-0.4046 1.4358q-0.04934 0.17269-0.08881 0.39473-0.03947 0.22204-0.03947 0.33552 0 0.28618 0.12829 0.3898 0.12829 0.10362 0.44407 0.10362 0.14802 0 0.33552-0.049341 0.1875-0.054275 0.27138-0.093749zm0.10362-6.0246q0 0.37499-0.28618 0.64144-0.28124 0.26151-0.68091 0.26151-0.39966 0-0.68584-0.26151-0.28618-0.26644-0.28618-0.64144 0-0.37499 0.28618-0.64144 0.28618-0.26644 0.68584-0.26644 0.39966 0 0.68091 0.26644 0.28618 0.26644 0.28618 0.64144z"/>
  <path d="m61.822 8.9786q-1.1348 0-1.7714-0.56742-0.63157-0.56743-0.63157-1.5592 0-0.59703 0.2023-1.1299 0.2023-0.53782 0.6217-0.97696 0.3898-0.41447 1.0016-0.67598 0.61183-0.26151 1.3668-0.26151 0.87334 0 1.3322 0.32072 0.46381 0.32072 0.46381 0.88321 0 0.15296-0.04934 0.34046-0.04934 0.1875-0.14802 0.31578-0.12335 0.15789-0.27138 0.24177-0.14309 0.08388-0.4342 0.08388-0.38486 0-0.60196-0.1875-0.21217-0.19243-0.21217-0.39966 0-0.24671 0.10362-0.48848t0.26151-0.50822q-0.04441-0.054276-0.18256-0.13322-0.13322-0.078946-0.35032-0.078946-0.57729 0-0.95722 0.70065-0.37993 0.69571-0.37993 1.7269 0 0.78453 0.28618 1.1891 0.29111 0.4046 0.824 0.4046 0.54275 0 0.90295-0.20723 0.36512-0.21217 0.74505-0.72038l0.35526 0.30098q-0.4046 0.62663-1.0707 1.0066-0.66611 0.37993-1.4062 0.37993z"/>
  <path d="m71.104 5.8602q0 0.6217-0.23684 1.1891t-0.67104 0.98683q-0.46874 0.44901-1.1003 0.69571-0.62663 0.24177-1.4112 0.24177-1.051 0-1.6973-0.55756-0.64637-0.56249-0.64637-1.5296 0-0.65624 0.24177-1.2187 0.24671-0.56249 0.68584-0.98189 0.4342-0.40953 1.0658-0.64637 0.63157-0.24177 1.3668-0.24177 1.1151 0 1.7566 0.54769 0.64637 0.54275 0.64637 1.5148zm-1.7368-0.55756q0-0.57729-0.19736-0.84867-0.19243-0.27138-0.56249-0.27138-0.37993 0-0.69571 0.30592-0.31578 0.30098-0.51315 0.88814-0.17269 0.48848-0.24671 1.0608-0.07401 0.56742-0.07401 1.0164 0 0.59703 0.19736 0.86841 0.19736 0.26644 0.57236 0.26644 0.4046 0 0.70065-0.33059 0.29605-0.33059 0.46874-0.81413 0.1727-0.47368 0.26151-1.046 0.08881-0.57729 0.08881-1.0954z"/>
  <path d="m79.47 5.9983-0.42927-2.5509-1.5987 2.5509zm-0.78946 2.8174 0.08388-0.36019q0.50822-0.039473 0.78946-0.12335 0.28618-0.088814 0.28618-0.19243 0-0.088814-0.0099-0.15296-0.0099-0.064144-0.02467-0.14802l-0.24668-1.3766h-2.4128q-0.11842 0.18256-0.30098 0.48354-0.17763 0.29605-0.30098 0.50822-0.1875 0.33552-0.22204 0.45887-0.0296 0.12335-0.0296 0.15789 0 0.14802 0.2319 0.24671 0.2319 0.093749 0.71052 0.13816l-0.08388 0.36019h-2.9407l0.08388-0.36019q0.14309-0.00987 0.36019-0.049341 0.2171-0.039473 0.36513-0.11842 0.20723-0.10855 0.38979-0.28125 0.18256-0.17269 0.34046-0.4194 1.0016-1.5394 1.8404-2.8421 0.8388-1.3075 1.944-3.0296h0.97696q0.37993 2.2105 0.62663 3.6562 0.25164 1.4457 0.43914 2.4177 0.02467 0.14802 0.09375 0.27138 0.07401 0.11842 0.2319 0.22697 0.11842 0.078946 0.28618 0.11842 0.1727 0.039473 0.32072 0.049341l-0.08388 0.36019z"/>
  <path d="m90.084 8.0608-0.10855 0.44407q-0.48848 0.19243-0.77959 0.29605-0.29111 0.098683-0.67598 0.098683-0.58716 0-0.91281-0.29111-0.32565-0.29605-0.32565-0.73025 0-0.11842 0.0099-0.30098 0.0148-0.1875 0.08388-0.46381l0.35526-1.3125q0.05428-0.21217 0.07895-0.37993 0.02961-0.17269 0.02961-0.28125 0-0.23684-0.11348-0.37006t-0.38486-0.13322q-0.16776 0-0.47861 0.13322-0.31085 0.12829-0.69571 0.48354l-0.81417 3.5624h-1.6332l0.70065-3.0345q0.0296-0.13816 0.07401-0.36019 0.04934-0.22204 0.04934-0.37006 0-0.28125-0.11842-0.38486-0.11348-0.10855-0.4194-0.10855-0.15789 0-0.32565 0.049341-0.16283 0.049341-0.28125 0.093749l0.10855-0.44407q0.39966-0.16283 0.76479-0.27631 0.36512-0.11842 0.69078-0.11842 0.58223 0 0.86841 0.2319 0.29111 0.22697 0.38486 0.64144h0.03454q0.48354-0.43914 0.99669-0.68091 0.51808-0.24671 1.1003-0.24671 0.54769 0 0.8536 0.30098 0.31085 0.30098 0.31085 0.73025 0 0.11349-0.01974 0.32072-0.0148 0.2023-0.07895 0.4342l-0.37499 1.3865q-0.04934 0.17269-0.08881 0.39473t-0.03947 0.33552q0 0.28618 0.12335 0.3898 0.12829 0.10362 0.44407 0.10362 0.14802 0 0.33552-0.049341 0.1875-0.054275 0.27138-0.093749z"/>
  <path d="m94.531 8.199h-0.03947q-0.17269 0.14802-0.33059 0.27138-0.15789 0.12335-0.4046 0.24671-0.2319 0.11842-0.45394 0.18256-0.2171 0.069078-0.50328 0.069078-0.85854 0-1.2927-0.50328-0.4342-0.50822-0.4342-1.3865 0-0.67598 0.23684-1.2681t0.64144-1.0411q0.39966-0.44407 0.94735-0.70065 0.54769-0.26151 1.1497-0.26151 0.45394 0 0.75986 0.098683 0.30592 0.093749 0.50822 0.25164l0.36512-1.6036q0.0148-0.069078 0.02467-0.14802 0.0148-0.08388 0.0148-0.13322 0-0.16283-0.08388-0.27631t-0.2319-0.17763q-0.13816-0.064144-0.31578-0.093749t-0.3898-0.054275l0.08881-0.36513 2.768-0.12829 0.05428 0.078946-1.3273 5.7384q-0.03454 0.14309-0.08388 0.37993-0.04441 0.2319-0.04441 0.35032 0 0.28125 0.12335 0.3898 0.12829 0.10362 0.44407 0.10362 0.13816 0 0.33059-0.054275 0.19736-0.054275 0.27631-0.088814l-0.10855 0.44407q-0.48848 0.19243-0.77959 0.29605-0.29111 0.098683-0.67598 0.098683-0.50822 0-0.81413-0.19737-0.30098-0.2023-0.4194-0.51808zm0.58223-3.1578q0-0.12335-0.03454-0.25164-0.0296-0.13322-0.12335-0.25164-0.09375-0.12335-0.2319-0.19243-0.13816-0.074012-0.37499-0.074012-0.31578 0-0.5921 0.23684-0.27138 0.2319-0.48354 0.6365-0.19736 0.37499-0.31578 0.89308-0.11842 0.51315-0.11842 1.0608 0 0.24177 0.03454 0.44901 0.03947 0.20723 0.12335 0.35032 0.08881 0.15296 0.23684 0.23684 0.15296 0.08388 0.37993 0.08388 0.2319 0 0.45887-0.13322 0.2319-0.13816 0.41447-0.33552z"/>
  <path d="m103.43 4.8339q0 0.22204-0.0641 0.42927-0.0642 0.20723-0.19243 0.35526-0.14309 0.16776-0.30099 0.25164-0.15789 0.078946-0.44407 0.078946-0.37006 0-0.58223-0.18256-0.21216-0.18256-0.21216-0.40953 0-0.21217 0.0592-0.36513 0.0641-0.15296 0.19736-0.46381-0.33059 0.13816-0.56742 0.34046-0.23684 0.19737-0.45394 0.45394l-0.7796 3.4934h-1.6332l0.68091-3.0345q0.02961-0.13816 0.07401-0.36019 0.04934-0.22204 0.04934-0.37006 0-0.28618-0.11348-0.3898-0.10855-0.10362-0.42434-0.10362-0.15789 0-0.32565 0.049341-0.16283 0.049341-0.28124 0.093749l0.10855-0.44407q0.39966-0.16283 0.76479-0.27631 0.36512-0.11842 0.69078-0.11842 0.58223 0 0.86841 0.2319 0.29111 0.22697 0.38486 0.64144h0.0345q0.48848-0.51808 0.82893-0.72038 0.34046-0.20723 0.73025-0.20723 0.41941 0 0.66118 0.26644 0.24177 0.26151 0.24177 0.75986z"/>
  <path d="m106.58 8.9786q-0.59209 0-1.0411-0.16283-0.44407-0.15789-0.73518-0.44407-0.28618-0.28618-0.42927-0.66611t-0.14309-0.8388q0-0.58223 0.2171-1.1299t0.64637-0.98683q0.4046-0.4194 1.0263-0.68091 0.6217-0.26151 1.3717-0.26151 0.88321 0 1.3421 0.28125 0.46381 0.28125 0.46381 0.84374 0 0.53782-0.39966 0.92762-0.39967 0.38486-1.0855 0.57236-0.54276 0.16283-0.92762 0.2319-0.37993 0.069078-0.93255 0.12829 0.01 0.2171 0.0592 0.48848 0.0493 0.27138 0.14802 0.46381 0.11842 0.22204 0.33552 0.35526 0.21711 0.12829 0.55263 0.12829 0.58222 0 0.98682-0.22204 0.40953-0.22697 0.77959-0.71545l0.3602 0.30098q-0.44408 0.63157-1.1398 1.0115-0.69078 0.37499-1.4556 0.37499zm1.1151-3.9078q0-0.4194-0.15296-0.64144-0.15296-0.22697-0.42434-0.22697-0.37992 0-0.72038 0.6217-0.33552 0.61677-0.42927 1.5641 0.29112-0.034539 0.57729-0.088814 0.28618-0.054275 0.45394-0.12829 0.37006-0.16283 0.53289-0.4194t0.16283-0.68091z"/>
  <path d="m112.19 8.9786q-0.6217 0-1.0312-0.10362-0.4046-0.098683-0.64144-0.25657-0.24177-0.15789-0.33059-0.33552-0.0888-0.18256-0.0888-0.34046 0-0.28618 0.21217-0.49835 0.2171-0.2171 0.57236-0.2171 0.29604 0 0.49341 0.15296 0.2023 0.15296 0.33552 0.38486 0.12335 0.21217 0.20723 0.46874 0.0839 0.25657 0.11842 0.37993 0.55756 0 0.84374-0.23684 0.28618-0.24177 0.28618-0.65624 0-0.18256-0.0888-0.30592-0.0839-0.12335-0.22697-0.2171-0.14309-0.088814-0.36512-0.17269-0.22204-0.08388-0.43914-0.15789-0.59703-0.2023-0.94735-0.55756-0.34539-0.36019-0.34539-0.89308 0-0.31578 0.14309-0.5921 0.14802-0.28125 0.45887-0.51808 0.30592-0.22697 0.77466-0.36019 0.46874-0.13816 1.0954-0.13816 0.37499 0 0.69571 0.044407t0.59703 0.16283q0.26151 0.11842 0.4046 0.31085 0.14802 0.1875 0.14802 0.45887t-0.20723 0.46874q-0.2023 0.19243-0.53289 0.19243-0.28618 0-0.47861-0.14802-0.18749-0.14802-0.30591-0.35032-0.11842-0.20723-0.1875-0.42434-0.0691-0.22204-0.11349-0.37006-0.34538 0.019737-0.63156 0.25164-0.28125 0.22697-0.28125 0.56743 0 0.20723 0.0641 0.32565 0.0691 0.11842 0.18257 0.19737 0.12828 0.088814 0.32072 0.16776 0.19736 0.074012 0.48847 0.17269 0.67105 0.23684 1.0115 0.56742 0.34046 0.33059 0.34046 0.87334 0 0.35526-0.16776 0.68091-0.16283 0.32565-0.46875 0.54275-0.34045 0.23684-0.78452 0.35526-0.44408 0.12335-1.1299 0.12335z"/>
  <path d="m118.5 8.9786q-0.5921 0-1.0411-0.16283-0.44407-0.15789-0.73518-0.44407-0.28618-0.28618-0.42927-0.66611t-0.14309-0.8388q0-0.58223 0.2171-1.1299t0.64637-0.98683q0.4046-0.4194 1.0263-0.68091 0.6217-0.26151 1.3717-0.26151 0.88321 0 1.3421 0.28125 0.46381 0.28125 0.46381 0.84374 0 0.53782-0.39966 0.92762-0.39967 0.38486-1.0855 0.57236-0.54276 0.16283-0.92762 0.2319-0.37993 0.069078-0.93255 0.12829 0.01 0.2171 0.0592 0.48848 0.0493 0.27138 0.14802 0.46381 0.11842 0.22204 0.33553 0.35526 0.2171 0.12829 0.55262 0.12829 0.58223 0 0.98682-0.22204 0.40954-0.22697 0.7796-0.71545l0.36019 0.30098q-0.44407 0.63157-1.1398 1.0115-0.69077 0.37499-1.4556 0.37499zm1.1151-3.9078q0-0.4194-0.15296-0.64144-0.15296-0.22697-0.42433-0.22697-0.37993 0-0.72039 0.6217-0.33552 0.61677-0.42927 1.5641 0.29112-0.034539 0.5773-0.088814t0.45394-0.12829q0.37006-0.16283 0.53288-0.4194 0.16283-0.25657 0.16283-0.68091z"/>
  <path d="m128.78 8.0608-0.10855 0.44407q-0.48848 0.19243-0.77959 0.29605-0.29111 0.098683-0.67598 0.098683-0.58716 0-0.91281-0.29111-0.32565-0.29605-0.32565-0.73025 0-0.11842 0.01-0.30098 0.0148-0.1875 0.0839-0.46381l0.35526-1.3125q0.0543-0.21217 0.079-0.37993 0.0296-0.17269 0.0296-0.28125 0-0.23684-0.11348-0.37006-0.11349-0.13322-0.38486-0.13322-0.16776 0-0.47861 0.13322-0.31086 0.12829-0.69572 0.48354l-0.81413 3.5624h-1.6332l0.70065-3.0345q0.0296-0.13816 0.074-0.36019 0.0493-0.22204 0.0493-0.37006 0-0.28125-0.11842-0.38486-0.11348-0.10855-0.4194-0.10855-0.15789 0-0.32565 0.049341-0.16283 0.049341-0.28124 0.093749l0.10855-0.44407q0.39966-0.16283 0.76479-0.27631 0.36512-0.11842 0.69077-0.11842 0.58223 0 0.86841 0.2319 0.29112 0.22697 0.38486 0.64144h0.0345q0.48355-0.43914 0.9967-0.68091 0.51808-0.24671 1.1003-0.24671 0.54769 0 0.8536 0.30098 0.31085 0.30098 0.31085 0.73025 0 0.11349-0.0197 0.32072-0.0148 0.2023-0.0789 0.4342l-0.37499 1.3865q-0.0493 0.17269-0.0888 0.39473t-0.0395 0.33552q0 0.28618 0.12335 0.3898 0.12829 0.10362 0.44407 0.10362 0.14803 0 0.33553-0.049341 0.18749-0.054275 0.27137-0.093749z"/>
  <path d="m4.4317 21.742q-0.67104 0-1.2434-0.19243-0.57236-0.1875-0.99669-0.55756-0.42927-0.37006-0.67104-0.90295-0.23684-0.53289-0.23684-1.199 0-0.98683 0.34539-1.8108 0.35032-0.82893 0.97202-1.4408 0.61183-0.60196 1.4605-0.93748 0.8536-0.34046 1.8404-0.34046 0.59703 0 1.1842 0.14802 0.5921 0.14309 0.88814 0.31085l0.36513-0.27138h0.42927l-0.54275 2.5559h-0.4342q-0.10855-1.1398-0.61183-1.7121-0.49835-0.57729-1.2927-0.57729-0.63157 0-1.125 0.37499-0.49341 0.37499-0.83387 0.97202-0.33552 0.58223-0.52302 1.3914-0.18256 0.80426-0.18256 1.5888 0 0.97696 0.37993 1.5543 0.38486 0.57236 1.1299 0.57236 0.4046 0 0.70065-0.13322 0.29605-0.13322 0.52302-0.32565l0.31085-1.3371q0.019737-0.08882 0.029605-0.16283 0.014802-0.07895 0.014802-0.12335 0-0.20723-0.25657-0.32072-0.25657-0.11842-0.73025-0.1875l0.08388-0.36019h3.7894l-0.08388 0.36019q-0.15296 0.0099-0.35526 0.04934-0.2023 0.03947-0.32565 0.07401-0.20723 0.06414-0.30098 0.2023-0.093748 0.13322-0.13322 0.29605l-0.19737 0.8536q-0.049341 0.2171-0.08388 0.39473-0.029605 0.1727-0.064144 0.37499-0.56743 0.32565-1.5049 0.57236-0.93255 0.24671-1.7171 0.24671z"/>
  <path d="m13.285 20.933h-0.03947q-0.1727 0.14802-0.33059 0.27138-0.15296 0.12335-0.3898 0.24671-0.20723 0.10855-0.43914 0.17763-0.22697 0.07401-0.50328 0.07401-0.85854 0-1.2927-0.50328-0.4342-0.50822-0.4342-1.3865 0-0.67598 0.24177-1.2681 0.24177-0.5921 0.64637-1.0411 0.40953-0.44407 0.95722-0.70065 0.54769-0.26151 1.1546-0.26151 0.44407 0 0.77466 0.10362 0.33552 0.10362 0.54769 0.28124l1.5148-0.31085 0.06908 0.07895-0.72532 3.0345q-0.03947 0.15296-0.08388 0.38486-0.04441 0.22697-0.04441 0.34539 0 0.28124 0.12829 0.3898 0.12829 0.10362 0.44407 0.10362 0.13816 0 0.33059-0.05428 0.19736-0.05428 0.27631-0.08881l-0.10855 0.44407q-0.48848 0.19243-0.78453 0.29605-0.29111 0.09868-0.67598 0.09868-0.50822 0-0.81413-0.19736-0.30098-0.2023-0.4194-0.51808zm0.58716-3.1282q0-0.10855-0.02961-0.25658t-0.10362-0.25164q-0.08881-0.12829-0.2319-0.19243-0.14309-0.06908-0.35526-0.06908-0.32565 0-0.60196 0.23684-0.27138 0.2319-0.48354 0.6217-0.20723 0.38486-0.32565 0.89801-0.11842 0.50822-0.11842 1.0411 0 0.24177 0.03454 0.44901 0.03947 0.20723 0.12335 0.35032 0.08882 0.15296 0.23684 0.23684 0.15296 0.08388 0.37993 0.08388 0.2319 0 0.44407-0.13322 0.2171-0.13816 0.39966-0.33552z"/>
  <path d="m22.192 17.567q0 0.22204-0.06414 0.42927-0.06414 0.20723-0.19243 0.35526-0.14309 0.16776-0.30098 0.25164-0.15789 0.07895-0.44407 0.07895-0.37006 0-0.58223-0.18256-0.21217-0.18256-0.21217-0.40953 0-0.21217 0.05921-0.36513 0.06414-0.15296 0.19736-0.46381-0.33059 0.13816-0.56742 0.34046-0.23684 0.19736-0.45394 0.45394l-0.77959 3.4934h-1.6332l0.68091-3.0345q0.0296-0.13816 0.07401-0.36019 0.04934-0.22204 0.04934-0.37006 0-0.28618-0.11348-0.3898-0.10855-0.10362-0.42434-0.10362-0.15789 0-0.32565 0.04934-0.16283 0.04934-0.28124 0.09375l0.10855-0.44407q0.39966-0.16283 0.76479-0.27631 0.36513-0.11842 0.69078-0.11842 0.58223 0 0.86841 0.2319 0.29111 0.22697 0.38486 0.64144h0.03454q0.48848-0.51808 0.82893-0.72038 0.34046-0.20723 0.73025-0.20723 0.4194 0 0.66117 0.26644 0.24177 0.26151 0.24177 0.75986z"/>
  <path d="m24.665 21.678q-0.5921 0-0.94735-0.28618-0.35526-0.29111-0.35526-0.73519 0-0.18256 0.02467-0.34539t0.07895-0.4194l0.61183-2.625h-0.90295l0.11842-0.50822h0.92268l0.35526-1.495h1.5987l-0.34539 1.495h1.3372l-0.11842 0.50822h-1.3322l-0.60196 2.625q-0.03454 0.13816-0.06908 0.33552-0.02961 0.19736-0.02961 0.25657 0 0.28125 0.15296 0.3898 0.15789 0.10855 0.47861 0.10855 0.15296 0 0.4194-0.05921 0.27138-0.05921 0.37993-0.09868l-0.10855 0.44407q-0.4342 0.19243-0.87334 0.30098-0.4342 0.10855-0.7944 0.10855z"/>
  <path d="m30.099 21.712q-0.5921 0-1.0411-0.16283-0.44407-0.15789-0.73519-0.44407-0.28618-0.28618-0.42927-0.66611t-0.14309-0.8388q0-0.58223 0.2171-1.1299 0.2171-0.54769 0.64637-0.98683 0.4046-0.4194 1.0263-0.68091 0.6217-0.26151 1.3717-0.26151 0.88321 0 1.3421 0.28125 0.46381 0.28124 0.46381 0.84374 0 0.53782-0.39966 0.92762-0.39966 0.38486-1.0855 0.57236-0.54275 0.16283-0.92762 0.2319-0.37993 0.06908-0.93255 0.12829 0.0099 0.2171 0.05921 0.48848 0.04934 0.27138 0.14802 0.46381 0.11842 0.22204 0.33552 0.35526 0.2171 0.12829 0.55262 0.12829 0.58223 0 0.98683-0.22204 0.40953-0.22697 0.77959-0.71545l0.36019 0.30098q-0.44407 0.63157-1.1398 1.0115-0.69078 0.37499-1.4556 0.37499zm1.1151-3.9078q0-0.4194-0.15296-0.64144-0.15296-0.22697-0.42434-0.22697-0.37993 0-0.72038 0.6217-0.33552 0.61677-0.42927 1.5641 0.29111-0.03454 0.57729-0.08881 0.28618-0.05428 0.45394-0.12829 0.37006-0.16283 0.53289-0.4194 0.16283-0.25658 0.16283-0.68091z"/>
  <path d="m40.388 20.794-0.10855 0.44407q-0.48848 0.19243-0.77959 0.29605-0.29111 0.09868-0.67598 0.09868-0.58716 0-0.91281-0.29111-0.32565-0.29605-0.32565-0.73025 0-0.11842 0.0099-0.30098 0.0148-0.1875 0.08388-0.46381l0.35526-1.3125q0.05428-0.21217 0.07895-0.37993 0.02961-0.1727 0.02961-0.28125 0-0.23684-0.11348-0.37006-0.11348-0.13322-0.38486-0.13322-0.16776 0-0.47861 0.13322-0.31085 0.12829-0.69571 0.48354l-0.81413 3.5624h-1.6332l0.70065-3.0345q0.0296-0.13816 0.07401-0.36019 0.04934-0.22204 0.04934-0.37006 0-0.28124-0.11842-0.38486-0.11348-0.10855-0.4194-0.10855-0.15789 0-0.32565 0.04934-0.16283 0.04934-0.28124 0.09375l0.10855-0.44407q0.39966-0.16283 0.76479-0.27631 0.36512-0.11842 0.69078-0.11842 0.58223 0 0.86841 0.2319 0.29111 0.22697 0.38486 0.64144h0.03454q0.48354-0.43914 0.9967-0.68091 0.51808-0.24671 1.1003-0.24671 0.54769 0 0.8536 0.30098 0.31085 0.30098 0.31085 0.73025 0 0.11348-0.01974 0.32072-0.0148 0.2023-0.07895 0.4342l-0.37499 1.3865q-0.04934 0.1727-0.08881 0.39473-0.03947 0.22204-0.03947 0.33552 0 0.28618 0.12335 0.3898 0.12829 0.10362 0.44407 0.10362 0.14802 0 0.33552-0.04934 0.1875-0.05428 0.27138-0.09375z"/>
  <path d="m48.112 20.765h-0.03454q-0.51808 0.47368-0.98683 0.70065-0.46874 0.22697-1.0855 0.22697-0.54769 0-0.84867-0.30098-0.29605-0.30098-0.29605-0.73025 0-0.15296 0.0148-0.31085 0.01974-0.15789 0.09375-0.44407l0.37006-1.3865q0.03454-0.13816 0.07895-0.37499 0.04934-0.24177 0.04934-0.35526 0-0.27138-0.11348-0.37993-0.10855-0.11348-0.42927-0.11348-0.15789 0-0.32565 0.04934-0.16283 0.04934-0.28125 0.09375l0.10855-0.44407q0.39966-0.16283 0.76479-0.27631 0.36513-0.11842 0.69078-0.11842 0.58716 0 0.90295 0.29605 0.32072 0.29111 0.32072 0.72532 0 0.08881-0.01974 0.32565-0.01974 0.23684-0.07895 0.43914l-0.36019 1.3125q-0.04934 0.17269-0.07895 0.37499-0.0296 0.19736-0.0296 0.28618 0 0.2319 0.10855 0.37006 0.10855 0.13322 0.37499 0.13322 0.19243 0 0.50822-0.15789 0.32072-0.16283 0.63157-0.45887l0.81413-3.5624 1.574-0.06908 0.05921 0.06908-0.70065 3.0345q-0.03454 0.14309-0.08388 0.37993-0.04441 0.23684-0.04441 0.35032 0 0.28618 0.12335 0.3898 0.12829 0.10362 0.44407 0.10362 0.14802 0 0.33552-0.04934 0.1875-0.05428 0.27138-0.09375l-0.10855 0.44407q-0.48848 0.19243-0.77959 0.29605-0.29111 0.09868-0.67598 0.09868-0.54276 0-0.86841-0.24177-0.32565-0.24671-0.40953-0.63157z"/>
  <path d="m58.436 20.794-0.10855 0.44407q-0.48848 0.19243-0.77959 0.29605-0.29111 0.09868-0.67598 0.09868-0.58716 0-0.91281-0.29111-0.32565-0.29605-0.32565-0.73025 0-0.11842 0.0099-0.30098 0.0148-0.1875 0.08388-0.46381l0.35526-1.3125q0.05428-0.21217 0.07895-0.37993 0.02961-0.1727 0.02961-0.28125 0-0.23684-0.11348-0.37006-0.11348-0.13322-0.38486-0.13322-0.16776 0-0.47861 0.13322-0.31085 0.12829-0.69571 0.48354l-0.81413 3.5624h-1.6332l0.70065-3.0345q0.0296-0.13816 0.07401-0.36019 0.04934-0.22204 0.04934-0.37006 0-0.28124-0.11842-0.38486-0.11348-0.10855-0.4194-0.10855-0.15789 0-0.32565 0.04934-0.16283 0.04934-0.28124 0.09375l0.10855-0.44407q0.39966-0.16283 0.76479-0.27631 0.36512-0.11842 0.69078-0.11842 0.58223 0 0.86841 0.2319 0.29111 0.22697 0.38486 0.64144h0.03454q0.48354-0.43914 0.9967-0.68091 0.51808-0.24671 1.1003-0.24671 0.54769 0 0.8536 0.30098 0.31085 0.30098 0.31085 0.73025 0 0.11348-0.01974 0.32072-0.0148 0.2023-0.07895 0.4342l-0.37499 1.3865q-0.04934 0.1727-0.08881 0.39473-0.03947 0.22204-0.03947 0.33552 0 0.28618 0.12335 0.3898 0.12829 0.10362 0.44407 0.10362 0.14802 0 0.33552-0.04934 0.1875-0.05428 0.27138-0.09375z"/>
  <path d="m62.882 20.933h-0.03947q-0.17269 0.14802-0.33059 0.27138-0.15789 0.12335-0.4046 0.24671-0.2319 0.11842-0.45394 0.18256-0.2171 0.06908-0.50328 0.06908-0.85854 0-1.2927-0.50328-0.4342-0.50822-0.4342-1.3865 0-0.67598 0.23684-1.2681t0.64144-1.0411q0.39966-0.44407 0.94735-0.70065 0.54769-0.26151 1.1497-0.26151 0.45394 0 0.75986 0.09868 0.30592 0.09375 0.50822 0.25164l0.36513-1.6036q0.0148-0.06908 0.02467-0.14802 0.0148-0.08388 0.0148-0.13322 0-0.16283-0.08388-0.27631t-0.2319-0.17763q-0.13816-0.06414-0.31578-0.09375-0.17763-0.02961-0.3898-0.05428l0.08881-0.36512 2.768-0.12829 0.05428 0.07895-1.3273 5.7384q-0.03454 0.14309-0.08388 0.37993-0.04441 0.2319-0.04441 0.35032 0 0.28124 0.12335 0.3898 0.12829 0.10362 0.44407 0.10362 0.13816 0 0.33059-0.05428 0.19737-0.05428 0.27631-0.08881l-0.10855 0.44407q-0.48848 0.19243-0.77959 0.29605-0.29111 0.09868-0.67598 0.09868-0.50822 0-0.81413-0.19736-0.30098-0.2023-0.4194-0.51808zm0.58223-3.1578q0-0.12335-0.03454-0.25164-0.02961-0.13322-0.12335-0.25164-0.09375-0.12335-0.2319-0.19243-0.13816-0.07401-0.37499-0.07401-0.31578 0-0.5921 0.23684-0.27138 0.2319-0.48354 0.6365-0.19736 0.37499-0.31578 0.89308-0.11842 0.51315-0.11842 1.0608 0 0.24177 0.03454 0.44901 0.03947 0.20723 0.12335 0.35032 0.08881 0.15296 0.23684 0.23684 0.15296 0.08388 0.37993 0.08388 0.2319 0 0.45887-0.13322 0.2319-0.13816 0.41447-0.33552z"/>
  <path d="m76.251 19.304-0.65624 2.245h-6.4489l0.08388-0.36019q0.12335-0.0049 0.36512-0.03454 0.24671-0.03454 0.36513-0.07401 0.19736-0.06414 0.29605-0.19243 0.09868-0.12829 0.13816-0.30098l1.1299-4.8947q0.02467-0.10362 0.03454-0.1727 0.0099-0.06908 0.0099-0.10362 0-0.20723-0.21217-0.32072-0.20723-0.11842-0.68091-0.1875l0.08388-0.36019h3.8486l-0.08388 0.36019q-0.15789 0.0099-0.4046 0.04934-0.24671 0.03454-0.37499 0.07401-0.20723 0.06414-0.30098 0.20723-0.09375 0.13816-0.13322 0.29605l-1.0707 4.6529q-0.03454 0.14309-0.05428 0.28124-0.01974 0.13322-0.01974 0.20723 0 0.28618 0.20723 0.37006 0.21217 0.07895 0.85854 0.07895 0.39473 0 0.78453-0.05921 0.3898-0.05921 0.58223-0.2171 0.30592-0.24671 0.68091-0.70558 0.37499-0.46381 0.61183-0.8388z"/>
  <path d="m80.624 20.933h-0.03947q-0.1727 0.14802-0.33059 0.27138-0.15296 0.12335-0.3898 0.24671-0.20723 0.10855-0.43914 0.17763-0.22697 0.07401-0.50328 0.07401-0.85854 0-1.2927-0.50328-0.4342-0.50822-0.4342-1.3865 0-0.67598 0.24177-1.2681 0.24177-0.5921 0.64637-1.0411 0.40953-0.44407 0.95722-0.70065 0.54769-0.26151 1.1546-0.26151 0.44407 0 0.77466 0.10362 0.33552 0.10362 0.54769 0.28124l1.5148-0.31085 0.06908 0.07895-0.72532 3.0345q-0.03947 0.15296-0.08388 0.38486-0.04441 0.22697-0.04441 0.34539 0 0.28124 0.12829 0.3898 0.12829 0.10362 0.44407 0.10362 0.13816 0 0.33059-0.05428 0.19736-0.05428 0.27631-0.08881l-0.10855 0.44407q-0.48848 0.19243-0.78453 0.29605-0.29111 0.09868-0.67598 0.09868-0.50822 0-0.81413-0.19736-0.30098-0.2023-0.4194-0.51808zm0.58716-3.1282q0-0.10855-0.0296-0.25658-0.02961-0.14802-0.10362-0.25164-0.08881-0.12829-0.2319-0.19243-0.14309-0.06908-0.35526-0.06908-0.32565 0-0.60196 0.23684-0.27138 0.2319-0.48354 0.6217-0.20723 0.38486-0.32565 0.89801-0.11842 0.50822-0.11842 1.0411 0 0.24177 0.03454 0.44901 0.03947 0.20723 0.12335 0.35032 0.08881 0.15296 0.23684 0.23684 0.15296 0.08388 0.37993 0.08388 0.2319 0 0.44407-0.13322 0.2171-0.13816 0.39966-0.33552z"/>
  <path d="m90.903 20.794-0.10855 0.44407q-0.48848 0.19243-0.77959 0.29605-0.29111 0.09868-0.67598 0.09868-0.58716 0-0.91281-0.29111-0.32565-0.29605-0.32565-0.73025 0-0.11842 0.0099-0.30098 0.0148-0.1875 0.08388-0.46381l0.35526-1.3125q0.05428-0.21217 0.07895-0.37993 0.02961-0.1727 0.02961-0.28125 0-0.23684-0.11348-0.37006-0.11348-0.13322-0.38486-0.13322-0.16776 0-0.47861 0.13322-0.31085 0.12829-0.69571 0.48354l-0.81413 3.5624h-1.6332l0.70065-3.0345q0.0296-0.13816 0.07401-0.36019 0.04934-0.22204 0.04934-0.37006 0-0.28124-0.11842-0.38486-0.11348-0.10855-0.4194-0.10855-0.15789 0-0.32565 0.04934-0.16283 0.04934-0.28124 0.09375l0.10855-0.44407q0.39966-0.16283 0.76479-0.27631 0.36512-0.11842 0.69078-0.11842 0.58223 0 0.86841 0.2319 0.29111 0.22697 0.38486 0.64144h0.03454q0.48354-0.43914 0.9967-0.68091 0.51808-0.24671 1.1003-0.24671 0.54769 0 0.8536 0.30098 0.31085 0.30098 0.31085 0.73025 0 0.11348-0.01974 0.32072-0.0148 0.2023-0.07895 0.4342l-0.37499 1.3865q-0.04934 0.1727-0.08881 0.39473-0.03947 0.22204-0.03947 0.33552 0 0.28618 0.12335 0.3898 0.12829 0.10362 0.44407 0.10362 0.14802 0 0.33552-0.04934 0.1875-0.05428 0.27138-0.09375z"/>
  <path d="m95.35 20.933h-0.03947q-0.17269 0.14802-0.33059 0.27138-0.15789 0.12335-0.4046 0.24671-0.2319 0.11842-0.45394 0.18256-0.2171 0.06908-0.50328 0.06908-0.85854 0-1.2927-0.50328-0.4342-0.50822-0.4342-1.3865 0-0.67598 0.23684-1.2681t0.64144-1.0411q0.39966-0.44407 0.94735-0.70065 0.54769-0.26151 1.1497-0.26151 0.45394 0 0.75986 0.09868 0.30592 0.09375 0.50822 0.25164l0.36513-1.6036q0.0148-0.06908 0.02467-0.14802 0.0148-0.08388 0.0148-0.13322 0-0.16283-0.08388-0.27631t-0.2319-0.17763q-0.13816-0.06414-0.31578-0.09375t-0.3898-0.05428l0.08881-0.36512 2.768-0.12829 0.05428 0.07895-1.3273 5.7384q-0.03454 0.14309-0.08388 0.37993-0.04441 0.2319-0.04441 0.35032 0 0.28124 0.12335 0.3898 0.12829 0.10362 0.44407 0.10362 0.13816 0 0.33059-0.05428 0.19736-0.05428 0.27631-0.08881l-0.10855 0.44407q-0.48848 0.19243-0.77959 0.29605-0.29111 0.09868-0.67598 0.09868-0.50822 0-0.81413-0.19736-0.30098-0.2023-0.4194-0.51808zm0.58223-3.1578q0-0.12335-0.03454-0.25164-0.02961-0.13322-0.12335-0.25164-0.09375-0.12335-0.2319-0.19243-0.13816-0.07401-0.37499-0.07401-0.31578 0-0.5921 0.23684-0.27138 0.2319-0.48354 0.6365-0.19736 0.37499-0.31578 0.89308-0.11842 0.51315-0.11842 1.0608 0 0.24177 0.03454 0.44901 0.03947 0.20723 0.12335 0.35032 0.08881 0.15296 0.23684 0.23684 0.15296 0.08388 0.37993 0.08388 0.2319 0 0.45887-0.13322 0.2319-0.13816 0.41447-0.33552z"/>
  <path d="m100.94 21.712q-0.6217 0-1.0312-0.10362-0.4046-0.09868-0.64144-0.25658-0.24177-0.15789-0.33059-0.33552-0.08881-0.18256-0.08881-0.34046 0-0.28618 0.21217-0.49835 0.2171-0.2171 0.57236-0.2171 0.29605 0 0.49341 0.15296 0.2023 0.15296 0.33553 0.38486 0.12335 0.21217 0.20723 0.46874 0.0839 0.25658 0.11842 0.37993 0.55755 0 0.84373-0.23684 0.28618-0.24177 0.28618-0.65624 0-0.18256-0.0888-0.30592-0.0839-0.12335-0.22697-0.2171-0.14309-0.08881-0.36513-0.1727-0.22203-0.08388-0.43913-0.15789-0.59703-0.2023-0.94736-0.55756-0.34539-0.36019-0.34539-0.89308 0-0.31578 0.14309-0.5921 0.14802-0.28124 0.45888-0.51808 0.30591-0.22697 0.77466-0.36019 0.46874-0.13816 1.0954-0.13816 0.375 0 0.69572 0.04441 0.32071 0.04441 0.59703 0.16283 0.2615 0.11842 0.40459 0.31085 0.14803 0.1875 0.14803 0.45887t-0.20724 0.46874q-0.20229 0.19243-0.53288 0.19243-0.28618 0-0.47861-0.14802-0.1875-0.14802-0.30592-0.35032-0.11842-0.20723-0.1875-0.42434-0.0691-0.22204-0.11348-0.37006-0.34539 0.01974-0.63157 0.25164-0.28124 0.22697-0.28124 0.56742 0 0.20723 0.0641 0.32565 0.0691 0.11842 0.18256 0.19736 0.12829 0.08881 0.32072 0.16776 0.19737 0.07401 0.48848 0.1727 0.67104 0.23684 1.0115 0.56742 0.34045 0.33059 0.34045 0.87334 0 0.35526-0.16776 0.68091-0.16283 0.32565-0.46874 0.54275-0.34046 0.23684-0.78453 0.35526-0.44407 0.12335-1.1299 0.12335z"/>
  <path d="m107.3 21.712q-1.1348 0-1.7714-0.56742-0.63157-0.56742-0.63157-1.5592 0-0.59703 0.2023-1.1299 0.2023-0.53782 0.6217-0.97696 0.3898-0.41447 1.0016-0.67598t1.3668-0.26151q0.87334 0 1.3322 0.32072 0.46381 0.32072 0.46381 0.88321 0 0.15296-0.0493 0.34046t-0.14803 0.31578q-0.12335 0.15789-0.27137 0.24177-0.14309 0.08388-0.43421 0.08388-0.38486 0-0.60196-0.1875-0.21217-0.19243-0.21217-0.39966 0-0.24671 0.10362-0.48848 0.10362-0.24177 0.26151-0.50822-0.0444-0.05428-0.18256-0.13322-0.13323-0.07895-0.35033-0.07895-0.57729 0-0.95722 0.70065-0.37993 0.69571-0.37993 1.7269 0 0.78453 0.28618 1.1891 0.29112 0.4046 0.824 0.4046 0.54276 0 0.90295-0.20723 0.36512-0.21217 0.74505-0.72038l0.35526 0.30098q-0.4046 0.62664-1.0707 1.0066-0.6661 0.37993-1.4062 0.37993z"/>
  <path d="m117.17 20.804-0.10855 0.4342q-0.48848 0.19243-0.77959 0.29605-0.29112 0.09868-0.67598 0.09868-0.58716 0-0.91775-0.29111-0.32565-0.29605-0.32565-0.73025 0-0.13816 0.01-0.30592 0.0148-0.16776 0.0888-0.45887l0.35526-1.3125q0.0543-0.21217 0.079-0.37993 0.0296-0.1727 0.0296-0.28125 0-0.23684-0.11348-0.37006-0.11349-0.13322-0.38487-0.13322-0.16776 0-0.47861 0.13322-0.31085 0.12829-0.69571 0.48354l-0.81413 3.5624h-1.6332l1.4506-6.2811q0.0197-0.08388 0.0296-0.15789 0.01-0.07401 0.01-0.12335 0-0.17763-0.0592-0.28125-0.0592-0.10362-0.17763-0.16776-0.11842-0.06414-0.27138-0.08881-0.15295-0.02467-0.35525-0.04441l0.0888-0.36512 2.6003-0.12829 0.0543 0.07895-0.78946 3.4144h0.0345q0.45888-0.4046 0.95229-0.63157 0.49341-0.2319 1.0608-0.2319 0.54769 0 0.8536 0.30098 0.31085 0.30098 0.31085 0.73025 0 0.11348-0.0197 0.32072-0.0148 0.2023-0.0789 0.4342l-0.37499 1.3865q-0.0494 0.1727-0.0888 0.39473-0.0395 0.22204-0.0395 0.33552 0 0.28618 0.12335 0.39473 0.12829 0.10855 0.44407 0.10855 0.14803 0 0.33552-0.04934 0.1875-0.05428 0.27138-0.09375z"/>
  <path d="m121.59 20.933h-0.0395q-0.1727 0.14802-0.33059 0.27138-0.15296 0.12335-0.3898 0.24671-0.20723 0.10855-0.43913 0.17763-0.22697 0.07401-0.50329 0.07401-0.85853 0-1.2927-0.50328-0.4342-0.50822-0.4342-1.3865 0-0.67598 0.24177-1.2681t0.64637-1.0411q0.40954-0.44407 0.95722-0.70065 0.54769-0.26151 1.1546-0.26151 0.44407 0 0.77466 0.10362 0.33552 0.10362 0.54769 0.28124l1.5148-0.31085 0.0691 0.07895-0.72531 3.0345q-0.0395 0.15296-0.0839 0.38486-0.0444 0.22697-0.0444 0.34539 0 0.28124 0.12829 0.3898 0.12828 0.10362 0.44407 0.10362 0.13815 0 0.33058-0.05428 0.19737-0.05428 0.27632-0.08881l-0.10856 0.44407q-0.48847 0.19243-0.78452 0.29605-0.29112 0.09868-0.67598 0.09868-0.50821 0-0.81413-0.19736-0.30098-0.2023-0.4194-0.51808zm0.58716-3.1282q0-0.10855-0.0296-0.25658t-0.10362-0.25164q-0.0888-0.12829-0.2319-0.19243-0.14309-0.06908-0.35526-0.06908-0.32565 0-0.60197 0.23684-0.27137 0.2319-0.48354 0.6217-0.20723 0.38486-0.32565 0.89801-0.11842 0.50822-0.11842 1.0411 0 0.24177 0.0345 0.44901 0.0395 0.20723 0.12335 0.35032 0.0888 0.15296 0.23684 0.23684 0.15296 0.08388 0.37993 0.08388 0.2319 0 0.44407-0.13322 0.2171-0.13816 0.39966-0.33552z"/>
  <path d="m128.1 17.266q-0.2467 1.2187-0.42927 2.1167-0.17763 0.89308-0.42927 1.87-0.12335 0.47861-0.40953 0.93748-0.28124 0.46381-0.66611 0.79933-0.4046 0.35526-0.87827 0.55262-0.46874 0.19736-0.96709 0.19736-0.44901 0-0.72532-0.08882-0.28124-0.08881-0.43914-0.22697-0.15295-0.13816-0.20723-0.30592-0.0543-0.16776-0.0543-0.33059 0-0.28618 0.20724-0.50822 0.2023-0.2171 0.54769-0.2171 0.26644 0 0.4638 0.13816 0.19244 0.14309 0.33059 0.34046 0.13816 0.19243 0.24671 0.42927 0.10362 0.23684 0.16282 0.37006 0.20724-0.22697 0.3898-0.68584 0.18256-0.45394 0.34046-1.2138l0.88321-4.1743h-0.95723l0.11842-0.50822h0.94736l0.0839-0.37993q0.10361-0.46381 0.37499-0.90788 0.27631-0.44901 0.66611-0.79933 0.37499-0.34539 0.86347-0.56249 0.49341-0.2171 0.98683-0.2171 0.42927 0 0.71051 0.08388 0.28618 0.07895 0.44901 0.22204 0.14802 0.13322 0.19736 0.30098 0.0543 0.16283 0.0543 0.32565 0 0.10855-0.0444 0.24177-0.0395 0.13322-0.12829 0.24177-0.10855 0.12335-0.2319 0.19243-0.11842 0.06908-0.35032 0.06908-0.26645 0-0.45888-0.13816-0.19243-0.14309-0.32565-0.33552-0.14309-0.2023-0.24177-0.4342-0.0987-0.2319-0.16283-0.37006-0.2023 0.2319-0.36512 0.67598-0.16283 0.44407-0.33553 1.2237l-0.12335 0.56742h1.2483l-0.11842 0.50822z"/>
  <path d="m131.44 21.678q-0.59209 0-0.94735-0.28618-0.35526-0.29111-0.35526-0.73519 0-0.18256 0.0247-0.34539t0.0789-0.4194l0.61183-2.625h-0.90295l0.11842-0.50822h0.92269l0.35525-1.495h1.5987l-0.34539 1.495h1.3372l-0.11842 0.50822h-1.3322l-0.60197 2.625q-0.0345 0.13816-0.0691 0.33552-0.0296 0.19736-0.0296 0.25657 0 0.28125 0.15296 0.3898 0.15789 0.10855 0.47861 0.10855 0.15296 0 0.4194-0.05921 0.27138-0.05921 0.37993-0.09868l-0.10855 0.44407q-0.43421 0.19243-0.87334 0.30098-0.43421 0.10855-0.7944 0.10855z"/>
  <path d="m136.32 21.712q-0.6217 0-1.0312-0.10362-0.4046-0.09868-0.64143-0.25658-0.24178-0.15789-0.33059-0.33552-0.0888-0.18256-0.0888-0.34046 0-0.28618 0.21217-0.49835 0.2171-0.2171 0.57236-0.2171 0.29605 0 0.49341 0.15296 0.2023 0.15296 0.33552 0.38486 0.12336 0.21217 0.20724 0.46874 0.0839 0.25658 0.11842 0.37993 0.55755 0 0.84373-0.23684 0.28618-0.24177 0.28618-0.65624 0-0.18256-0.0888-0.30592-0.0839-0.12335-0.22697-0.2171-0.14309-0.08881-0.36513-0.1727-0.22203-0.08388-0.43913-0.15789-0.59703-0.2023-0.94736-0.55756-0.34539-0.36019-0.34539-0.89308 0-0.31578 0.14309-0.5921 0.14803-0.28124 0.45888-0.51808 0.30591-0.22697 0.77466-0.36019 0.46874-0.13816 1.0954-0.13816 0.375 0 0.69572 0.04441 0.32071 0.04441 0.59703 0.16283 0.2615 0.11842 0.40459 0.31085 0.14803 0.1875 0.14803 0.45887t-0.20724 0.46874q-0.2023 0.19243-0.53288 0.19243-0.28618 0-0.47861-0.14802-0.1875-0.14802-0.30592-0.35032-0.11842-0.20723-0.1875-0.42434-0.0691-0.22204-0.11348-0.37006-0.34539 0.01974-0.63157 0.25164-0.28124 0.22697-0.28124 0.56742 0 0.20723 0.0641 0.32565 0.0691 0.11842 0.18256 0.19736 0.12829 0.08881 0.32072 0.16776 0.19737 0.07401 0.48848 0.1727 0.67104 0.23684 1.0115 0.56742 0.34045 0.33059 0.34045 0.87334 0 0.35526-0.16776 0.68091-0.16283 0.32565-0.46874 0.54275-0.34046 0.23684-0.78453 0.35526-0.44407 0.12335-1.1299 0.12335z"/>
  <path d="m146.31 18.431q0 0.66117-0.23683 1.2631-0.23191 0.59703-0.63651 1.0362-0.4194 0.45394-0.94242 0.70065-0.52301 0.24671-1.1546 0.24671-0.47368 0-0.76479-0.09375-0.28618-0.08882-0.49835-0.25658l-0.30098 1.3125q-0.0148 0.05921-0.0296 0.13816-0.0148 0.08388-0.0148 0.11842 0 0.11348 0.0493 0.20723 0.0493 0.09375 0.14803 0.13816 0.10855 0.04934 0.35032 0.09375 0.24177 0.04934 0.39966 0.05921l-0.0789 0.34539h-3.5624l0.0789-0.34539q0.12829-0.0099 0.32072-0.03947 0.19243-0.02467 0.29111-0.05428 0.16776-0.05428 0.25658-0.17269 0.0888-0.11348 0.12829-0.31085l0.97695-4.3026q0.0296-0.14309 0.074-0.36512 0.0493-0.22204 0.0493-0.36513 0-0.26151-0.10855-0.37499-0.10855-0.11842-0.42927-0.11842-0.14803 0-0.32072 0.04934-0.1727 0.04934-0.28618 0.09375l0.10855-0.44407q0.39966-0.16283 0.76479-0.27631 0.36513-0.11842 0.69078-0.11842 0.27138 0 0.47861 0.05428 0.20723 0.04934 0.36512 0.16283 0.13323 0.09375 0.21711 0.22697 0.0888 0.13322 0.14802 0.27138h0.0395q0.45394-0.39473 0.88321-0.58223t0.824-0.1875q0.85854 0 1.2878 0.50822 0.4342 0.50328 0.4342 1.3816zm-2.1957 1.944q0.21216-0.42927 0.32071-0.90295 0.10856-0.47368 0.10856-1.0608 0-0.24177-0.0345-0.44407-0.0345-0.20723-0.12336-0.35526-0.0888-0.15296-0.24177-0.23684-0.14802-0.08388-0.37499-0.08388-0.26151 0-0.51315 0.16283-0.25164 0.16283-0.37006 0.30592l-0.61184 2.7088q0 0.34046 0.19737 0.56742 0.19737 0.22204 0.56743 0.22204 0.30591 0 0.58716-0.23684 0.28618-0.23684 0.48848-0.64637z"/>
  <path d="m150.21 17.266q-0.24671 1.2187-0.42927 2.1167-0.17763 0.89308-0.42927 1.87-0.12336 0.47861-0.40953 0.93748-0.28125 0.46381-0.66611 0.79933-0.4046 0.35526-0.87828 0.55262-0.46874 0.19736-0.96709 0.19736-0.449 0-0.72531-0.08882-0.28125-0.08881-0.43914-0.22697-0.15296-0.13816-0.20724-0.30592-0.0543-0.16776-0.0543-0.33059 0-0.28618 0.20723-0.50822 0.2023-0.2171 0.54769-0.2171 0.26644 0 0.46381 0.13816 0.19243 0.14309 0.33059 0.34046 0.13815 0.19243 0.2467 0.42927 0.10362 0.23684 0.16283 0.37006 0.20723-0.22697 0.3898-0.68584 0.18256-0.45394 0.34045-1.2138l0.88321-4.1743h-0.95722l0.11842-0.50822h0.94735l0.0839-0.37993q0.10362-0.46381 0.37499-0.90788 0.27632-0.44901 0.66611-0.79933 0.375-0.34539 0.86347-0.56249 0.49342-0.2171 0.98683-0.2171 0.42927 0 0.71052 0.08388 0.28618 0.07895 0.449 0.22204 0.14803 0.13322 0.19737 0.30098 0.0543 0.16283 0.0543 0.32565 0 0.10855-0.0444 0.24177-0.0395 0.13322-0.12829 0.24177-0.10855 0.12335-0.23191 0.19243-0.11842 0.06908-0.35032 0.06908-0.26644 0-0.45887-0.13816-0.19243-0.14309-0.32566-0.33552-0.14309-0.2023-0.24177-0.4342-0.0987-0.2319-0.16283-0.37006-0.20229 0.2319-0.36512 0.67598-0.16283 0.44407-0.33552 1.2237l-0.12335 0.56742h1.2483l-0.11842 0.50822z"/>
  <path d="m155.21 13.99-1.3273 5.7729q-0.0345 0.14309-0.0839 0.37993-0.0444 0.23684-0.0444 0.35032 0 0.28618 0.14309 0.3898t0.47368 0.10362q0.12335 0 0.33552-0.04934 0.21217-0.05428 0.30098-0.09375l-0.10855 0.44407q-0.48848 0.19243-0.79933 0.29111-0.31085 0.10362-0.70558 0.10362-0.5921 0-0.93255-0.28618-0.34046-0.29111-0.34046-0.73519 0-0.18256 0.0296-0.37993 0.0345-0.19736 0.074-0.37993l1.0658-4.6331q0.0197-0.08388 0.0296-0.15789 0.01-0.07401 0.01-0.12335 0-0.17763-0.0592-0.28125-0.0592-0.10362-0.17763-0.16776-0.11842-0.06414-0.27138-0.08881t-0.35526-0.04441l0.0888-0.36512 2.6003-0.12829z"/>
  <path d="m158.35 21.712q-0.5921 0-1.0411-0.16283-0.44407-0.15789-0.73519-0.44407-0.28618-0.28618-0.42927-0.66611t-0.14309-0.8388q0-0.58223 0.2171-1.1299 0.21711-0.54769 0.64638-0.98683 0.40459-0.4194 1.0263-0.68091 0.6217-0.26151 1.3717-0.26151 0.88321 0 1.3421 0.28125 0.46381 0.28124 0.46381 0.84374 0 0.53782-0.39967 0.92762-0.39966 0.38486-1.0855 0.57236-0.54275 0.16283-0.92761 0.2319-0.37993 0.06908-0.93256 0.12829 0.01 0.2171 0.0592 0.48848 0.0494 0.27138 0.14803 0.46381 0.11842 0.22204 0.33552 0.35526 0.2171 0.12829 0.55262 0.12829 0.58223 0 0.98683-0.22204 0.40953-0.22697 0.77959-0.71545l0.36019 0.30098q-0.44407 0.63157-1.1398 1.0115-0.69078 0.37499-1.4556 0.37499zm1.1151-3.9078q0-0.4194-0.15296-0.64144-0.15295-0.22697-0.42433-0.22697-0.37993 0-0.72038 0.6217-0.33552 0.61677-0.42927 1.5641 0.29111-0.03454 0.57729-0.08881 0.28618-0.05428 0.45394-0.12829 0.37006-0.16283 0.53289-0.4194 0.16282-0.25658 0.16282-0.68091z"/>
  <path d="m165.51 21.031h-0.0395q-0.12336 0.09868-0.28618 0.21217-0.16283 0.11348-0.35033 0.19736-0.22697 0.10855-0.42433 0.16283-0.19737 0.05921-0.49835 0.05921-0.85854 0-1.3224-0.50328-0.45887-0.50328-0.45887-1.3816 0-0.66611 0.23684-1.2483 0.23684-0.58716 0.64144-1.0362 0.39966-0.43914 0.94241-0.69571 0.54769-0.25658 1.1546-0.25658 0.44407 0 0.78453 0.09375 0.34045 0.09375 0.58716 0.29111l1.5049-0.31085 0.0691 0.07895-0.83881 4.0114q-0.19736 0.89801-0.54768 1.4802-0.35033 0.58716-0.81414 0.93255-0.47367 0.35032-0.99176 0.48354-0.51314 0.13816-1.0806 0.13816-0.6069 0-0.99176-0.09375-0.37993-0.08881-0.58223-0.2319-0.19736-0.13816-0.27137-0.31085-0.0691-0.16776-0.0691-0.33059 0-0.28124 0.19736-0.50822 0.2023-0.22204 0.55756-0.22204 0.26644 0 0.47368 0.14309 0.21216 0.14309 0.37006 0.34539 0.14309 0.18256 0.26644 0.4194 0.12335 0.24177 0.1875 0.3898 0.22697-0.03947 0.449-0.12829 0.22697-0.08882 0.43421-0.33552 0.19736-0.23684 0.37499-0.65624 0.18256-0.4194 0.33552-1.1891zm0.66117-3.2319q0-0.12335-0.0345-0.25164-0.0296-0.13322-0.12335-0.25164-0.0937-0.12335-0.2319-0.19243-0.13816-0.07401-0.375-0.07401-0.32072 0-0.59209 0.2319-0.27138 0.22697-0.47861 0.61183-0.2023 0.37993-0.32072 0.88814-0.11842 0.50328-0.11842 1.0411 0 0.23684 0.0395 0.43914 0.0444 0.19736 0.14803 0.35526 0.10361 0.15789 0.26644 0.23684 0.16776 0.07895 0.37499 0.07895 0.24178 0 0.49342-0.14802 0.25657-0.14802 0.40953-0.31578z"/>
  <path d="m171.6 21.712q-0.5921 0-1.0411-0.16283-0.44408-0.15789-0.73519-0.44407-0.28618-0.28618-0.42927-0.66611t-0.14309-0.8388q0-0.58223 0.2171-1.1299 0.2171-0.54769 0.64637-0.98683 0.4046-0.4194 1.0263-0.68091t1.3717-0.26151q0.88321 0 1.3421 0.28125 0.4638 0.28124 0.4638 0.84374 0 0.53782-0.39966 0.92762-0.39967 0.38486-1.0855 0.57236-0.54275 0.16283-0.92762 0.2319-0.37992 0.06908-0.93255 0.12829 0.01 0.2171 0.0592 0.48848 0.0493 0.27138 0.14803 0.46381 0.11842 0.22204 0.33552 0.35526 0.2171 0.12829 0.55262 0.12829 0.58223 0 0.98683-0.22204 0.40953-0.22697 0.77959-0.71545l0.36019 0.30098q-0.44407 0.63157-1.1398 1.0115-0.69078 0.37499-1.4556 0.37499zm1.1151-3.9078q0-0.4194-0.15296-0.64144-0.15295-0.22697-0.42433-0.22697-0.37993 0-0.72039 0.6217-0.33552 0.61677-0.42926 1.5641 0.29111-0.03454 0.57729-0.08881 0.28618-0.05428 0.45394-0.12829 0.37006-0.16283 0.53288-0.4194 0.16283-0.25658 0.16283-0.68091z"/>
 </g>
 <g transform="translate(0 -52.917)" fill="#008000" stroke-width=".25263" aria-label="Nico Andresen Garten und Landschaftspflege">
  <path d="m55.227 54.731-0.08388 0.36019q-0.13816 0.0148-0.4046 0.05428-0.26151 0.03454-0.51315 0.19243-0.21217 0.13322-0.36513 0.45888-0.14802 0.32565-0.29605 0.95229l-1.1595 5.0229h-0.82893l-3.0246-5.6101-0.79933 3.5032q-0.06414 0.27631-0.09868 0.51808-0.03454 0.24177-0.03454 0.38486 0 0.2023 0.03947 0.31578 0.03947 0.10855 0.11348 0.18256 0.11348 0.11348 0.39473 0.19736 0.28618 0.08388 0.42434 0.10855l-0.08388 0.36019h-3.0098l0.08388-0.36019q0.13322-0.01974 0.4194-0.06908 0.29111-0.04934 0.49835-0.17763 0.2171-0.13816 0.36513-0.44901 0.14802-0.31578 0.29111-0.95722l0.75986-3.296q0.02467-0.11348 0.03947-0.21217 0.01974-0.10362 0.01974-0.1875 0-0.14802-0.03454-0.28125-0.03454-0.13816-0.12829-0.25164-0.13816-0.16776-0.34046-0.25658-0.2023-0.09375-0.47368-0.14309l0.08881-0.36019h2.5855l2.6447 4.9341 0.65624-2.8667q0.06908-0.31578 0.09868-0.51315 0.03454-0.2023 0.03454-0.37499 0-0.19243-0.04441-0.31085-0.03947-0.12335-0.11842-0.2023-0.10855-0.10855-0.38486-0.19243-0.27138-0.08881-0.4194-0.11348l0.08388-0.36019z"/>
  <path d="m58.372 61.027-0.10855 0.44407q-0.48848 0.19243-0.77959 0.29111-0.29111 0.10362-0.67598 0.10362-0.5921 0-0.92268-0.28618-0.32565-0.29111-0.32565-0.73519 0-0.17269 0.02467-0.35032 0.02467-0.18256 0.07895-0.40953l0.4046-1.4408q0.05427-0.20723 0.08881-0.3898 0.03947-0.1875 0.03947-0.34046 0-0.27631-0.11348-0.38486-0.11348-0.10855-0.4342-0.10855-0.15789 0-0.32565 0.04934-0.16283 0.04934-0.28124 0.09375l0.10855-0.44407q0.39966-0.16283 0.76479-0.27631 0.36513-0.11842 0.69078-0.11842 0.58716 0 0.90295 0.28618 0.32072 0.28124 0.32072 0.73518 0 0.09375-0.02467 0.33059-0.01974 0.23684-0.07895 0.4342l-0.4046 1.4358q-0.04934 0.17269-0.08881 0.39473t-0.03947 0.33552q0 0.28618 0.12829 0.3898 0.12829 0.10362 0.44407 0.10362 0.14802 0 0.33552-0.04934 0.1875-0.05428 0.27138-0.09375zm0.10362-6.0246q0 0.37499-0.28618 0.64144-0.28124 0.26151-0.68091 0.26151t-0.68584-0.26151q-0.28618-0.26644-0.28618-0.64144 0-0.37499 0.28618-0.64144 0.28618-0.26644 0.68584-0.26644t0.68091 0.26644q0.28618 0.26644 0.28618 0.64144z"/>
  <path d="m61.822 61.895q-1.1348 0-1.7714-0.56742-0.63157-0.56742-0.63157-1.5592 0-0.59703 0.2023-1.1299 0.2023-0.53782 0.6217-0.97696 0.3898-0.41447 1.0016-0.67598 0.61183-0.26151 1.3668-0.26151 0.87334 0 1.3322 0.32072 0.46381 0.32072 0.46381 0.88321 0 0.15296-0.04934 0.34046t-0.14802 0.31578q-0.12335 0.15789-0.27138 0.24177-0.14309 0.08388-0.4342 0.08388-0.38486 0-0.60196-0.1875-0.21217-0.19243-0.21217-0.39966 0-0.24671 0.10362-0.48848 0.10362-0.24177 0.26151-0.50822-0.04441-0.05428-0.18256-0.13322-0.13322-0.07895-0.35032-0.07895-0.57729 0-0.95722 0.70065-0.37993 0.69571-0.37993 1.7269 0 0.78453 0.28618 1.1891 0.29111 0.4046 0.824 0.4046 0.54276 0 0.90295-0.20723 0.36513-0.21217 0.74505-0.72038l0.35526 0.30098q-0.4046 0.62664-1.0707 1.0066t-1.4062 0.37993z"/>
  <path d="m71.104 58.777q0 0.6217-0.23684 1.1891-0.23684 0.56742-0.67104 0.98683-0.46874 0.44901-1.1003 0.69571-0.62664 0.24177-1.4112 0.24177-1.051 0-1.6973-0.55756-0.64637-0.56249-0.64637-1.5296 0-0.65624 0.24177-1.2187 0.24671-0.56249 0.68584-0.98189 0.4342-0.40953 1.0658-0.64637 0.63157-0.24177 1.3668-0.24177 1.1151 0 1.7566 0.54769 0.64637 0.54276 0.64637 1.5148zm-1.7368-0.55756q0-0.57729-0.19736-0.84867-0.19243-0.27138-0.56249-0.27138-0.37993 0-0.69571 0.30592-0.31578 0.30098-0.51315 0.88814-0.1727 0.48848-0.24671 1.0608-0.07401 0.56742-0.07401 1.0164 0 0.59703 0.19737 0.86841 0.19736 0.26644 0.57236 0.26644 0.4046 0 0.70065-0.33059t0.46874-0.81413q0.17269-0.47368 0.26151-1.046 0.08881-0.57729 0.08881-1.0954z"/>
  <path d="m79.47 58.915-0.42927-2.5509-1.5987 2.5509zm-0.78946 2.8174 0.08388-0.36019q0.50822-0.03947 0.78946-0.12335 0.28618-0.08881 0.28618-0.19243 0-0.08881-0.0099-0.15296-0.0099-0.06414-0.02467-0.14802l-0.24668-1.3766h-2.4128q-0.11842 0.18256-0.30098 0.48354-0.17763 0.29605-0.30098 0.50822-0.1875 0.33552-0.22204 0.45887-0.0296 0.12335-0.0296 0.15789 0 0.14802 0.2319 0.24671 0.2319 0.09375 0.71051 0.13816l-0.08388 0.36019h-2.9407l0.08388-0.36019q0.14309-0.0099 0.36019-0.04934 0.2171-0.03947 0.36513-0.11842 0.20723-0.10855 0.3898-0.28125 0.18256-0.17269 0.34046-0.4194 1.0016-1.5394 1.8404-2.8421 0.8388-1.3075 1.944-3.0296h0.97696q0.37993 2.2105 0.62664 3.6562 0.25164 1.4457 0.43914 2.4177 0.02467 0.14802 0.09375 0.27138 0.07401 0.11842 0.2319 0.22697 0.11842 0.07895 0.28618 0.11842 0.17269 0.03947 0.32072 0.04934l-0.08388 0.36019z"/>
  <path d="m90.084 60.977-0.10855 0.44407q-0.48848 0.19243-0.77959 0.29605-0.29111 0.09868-0.67598 0.09868-0.58716 0-0.91281-0.29111-0.32565-0.29605-0.32565-0.73025 0-0.11842 0.0099-0.30098 0.0148-0.1875 0.08388-0.46381l0.35526-1.3125q0.05427-0.21217 0.07895-0.37993 0.0296-0.1727 0.0296-0.28125 0-0.23684-0.11348-0.37006-0.11348-0.13322-0.38486-0.13322-0.16776 0-0.47861 0.13322-0.31085 0.12829-0.69571 0.48354l-0.81413 3.5624h-1.6332l0.70065-3.0345q0.02961-0.13816 0.07401-0.36019 0.04934-0.22204 0.04934-0.37006 0-0.28124-0.11842-0.38486-0.11348-0.10855-0.4194-0.10855-0.15789 0-0.32565 0.04934-0.16283 0.04934-0.28125 0.09375l0.10855-0.44407q0.39966-0.16283 0.76479-0.27631 0.36513-0.11842 0.69078-0.11842 0.58223 0 0.86841 0.2319 0.29111 0.22697 0.38486 0.64144h0.03454q0.48354-0.43914 0.99669-0.68091 0.51808-0.24671 1.1003-0.24671 0.54769 0 0.8536 0.30098 0.31085 0.30098 0.31085 0.73025 0 0.11349-0.01974 0.32072-0.0148 0.2023-0.07895 0.4342l-0.37499 1.3865q-0.04934 0.1727-0.08881 0.39473t-0.03947 0.33552q0 0.28618 0.12335 0.3898 0.12829 0.10362 0.44407 0.10362 0.14802 0 0.33552-0.04934 0.1875-0.05428 0.27138-0.09375z"/>
  <path d="m94.531 61.116h-0.03947q-0.1727 0.14802-0.33059 0.27138-0.15789 0.12335-0.4046 0.24671-0.2319 0.11842-0.45394 0.18256-0.2171 0.06908-0.50328 0.06908-0.85854 0-1.2927-0.50328-0.4342-0.50822-0.4342-1.3865 0-0.67598 0.23684-1.2681 0.23684-0.5921 0.64144-1.0411 0.39966-0.44407 0.94735-0.70065 0.54769-0.26151 1.1497-0.26151 0.45394 0 0.75986 0.09868 0.30592 0.09375 0.50822 0.25164l0.36513-1.6036q0.0148-0.06908 0.02467-0.14802 0.0148-0.08388 0.0148-0.13322 0-0.16283-0.08388-0.27631t-0.2319-0.17763q-0.13816-0.06414-0.31578-0.09375t-0.3898-0.05428l0.08881-0.36513 2.768-0.12829 0.05428 0.07895-1.3273 5.7384q-0.03454 0.14309-0.08388 0.37993-0.04441 0.2319-0.04441 0.35032 0 0.28124 0.12335 0.3898 0.12829 0.10362 0.44407 0.10362 0.13816 0 0.33059-0.05428 0.19736-0.05428 0.27631-0.08881l-0.10855 0.44407q-0.48848 0.19243-0.77959 0.29605-0.29111 0.09868-0.67598 0.09868-0.50822 0-0.81413-0.19736-0.30098-0.2023-0.4194-0.51808zm0.58223-3.1578q0-0.12335-0.03454-0.25164-0.02961-0.13322-0.12335-0.25164-0.09375-0.12335-0.2319-0.19243-0.13816-0.07401-0.37499-0.07401-0.31578 0-0.5921 0.23684-0.27138 0.2319-0.48354 0.6365-0.19737 0.37499-0.31578 0.89308-0.11842 0.51315-0.11842 1.0608 0 0.24177 0.03454 0.44901 0.03947 0.20723 0.12335 0.35032 0.08881 0.15296 0.23684 0.23684 0.15296 0.08388 0.37993 0.08388 0.2319 0 0.45887-0.13322 0.2319-0.13816 0.41447-0.33552z"/>
  <path d="m103.43 57.751q0 0.22204-0.0641 0.42927-0.0641 0.20723-0.19244 0.35526-0.14309 0.16776-0.30098 0.25164-0.15789 0.07895-0.44407 0.07895-0.37006 0-0.58223-0.18256-0.21216-0.18256-0.21216-0.40953 0-0.21217 0.0592-0.36512 0.0641-0.15296 0.19736-0.46381-0.33059 0.13816-0.56742 0.34046-0.23684 0.19737-0.45394 0.45394l-0.7796 3.4934h-1.6332l0.68091-3.0345q0.02961-0.13816 0.07401-0.36019 0.04934-0.22204 0.04934-0.37006 0-0.28618-0.11348-0.3898-0.10855-0.10362-0.42434-0.10362-0.15789 0-0.32565 0.04934-0.16283 0.04934-0.28125 0.09375l0.10855-0.44407q0.39966-0.16283 0.76479-0.27631 0.36513-0.11842 0.69078-0.11842 0.58223 0 0.86841 0.2319 0.29111 0.22697 0.38486 0.64144h0.0345q0.48848-0.51808 0.82893-0.72038 0.34046-0.20723 0.73025-0.20723 0.4194 0 0.66118 0.26644 0.24177 0.26151 0.24177 0.75986z"/>
  <path d="m106.58 61.895q-0.59209 0-1.0411-0.16283-0.44407-0.15789-0.73518-0.44407-0.28618-0.28618-0.42927-0.66611t-0.14309-0.8388q0-0.58223 0.2171-1.1299 0.2171-0.54769 0.64637-0.98683 0.4046-0.4194 1.0263-0.68091t1.3717-0.26151q0.88321 0 1.3421 0.28125 0.46381 0.28124 0.46381 0.84374 0 0.53782-0.39967 0.92762-0.39966 0.38486-1.0855 0.57236-0.54275 0.16283-0.92761 0.2319-0.37993 0.06908-0.93255 0.12829 0.01 0.2171 0.0592 0.48848 0.0493 0.27138 0.14802 0.46381 0.11842 0.22204 0.33552 0.35526 0.2171 0.12829 0.55262 0.12829 0.58223 0 0.98683-0.22204 0.40953-0.22697 0.77959-0.71545l0.3602 0.30098q-0.44408 0.63157-1.1398 1.0115-0.69078 0.37499-1.4556 0.37499zm1.1151-3.9078q0-0.4194-0.15296-0.64144-0.15296-0.22697-0.42434-0.22697-0.37993 0-0.72038 0.6217-0.33552 0.61677-0.42927 1.5641 0.29111-0.03454 0.57729-0.08881 0.28618-0.05428 0.45394-0.12829 0.37006-0.16283 0.53289-0.4194 0.16283-0.25658 0.16283-0.68091z"/>
  <path d="m112.19 61.895q-0.6217 0-1.0312-0.10362-0.4046-0.09868-0.64144-0.25657-0.24177-0.15789-0.33059-0.33552-0.0888-0.18256-0.0888-0.34046 0-0.28618 0.21217-0.49835 0.2171-0.2171 0.57235-0.2171 0.29605 0 0.49342 0.15296 0.2023 0.15296 0.33552 0.38486 0.12335 0.21217 0.20723 0.46874 0.0839 0.25658 0.11842 0.37993 0.55756 0 0.84374-0.23684 0.28618-0.24177 0.28618-0.65624 0-0.18256-0.0888-0.30592-0.0839-0.12335-0.22697-0.2171-0.14309-0.08881-0.36512-0.1727-0.22204-0.08388-0.43914-0.15789-0.59703-0.2023-0.94735-0.55756-0.34539-0.36019-0.34539-0.89308 0-0.31578 0.14309-0.5921 0.14802-0.28124 0.45887-0.51808 0.30592-0.22697 0.77466-0.36019 0.46874-0.13816 1.0954-0.13816 0.37499 0 0.69571 0.04441t0.59703 0.16283q0.26151 0.11842 0.4046 0.31085 0.14802 0.1875 0.14802 0.45887t-0.20723 0.46874q-0.2023 0.19243-0.53289 0.19243-0.28618 0-0.47861-0.14802-0.1875-0.14802-0.30591-0.35032-0.11842-0.20723-0.1875-0.42434-0.0691-0.22204-0.11349-0.37006-0.34539 0.01974-0.63157 0.25164-0.28124 0.22697-0.28124 0.56742 0 0.20723 0.0641 0.32565 0.0691 0.11842 0.18257 0.19736 0.12828 0.08881 0.32071 0.16776 0.19737 0.07401 0.48848 0.1727 0.67104 0.23684 1.0115 0.56742 0.34045 0.33059 0.34045 0.87334 0 0.35526-0.16776 0.68091-0.16282 0.32565-0.46874 0.54275-0.34045 0.23684-0.78452 0.35526-0.44408 0.12335-1.1299 0.12335z"/>
  <path d="m118.5 61.895q-0.59209 0-1.0411-0.16283-0.44407-0.15789-0.73518-0.44407-0.28618-0.28618-0.42927-0.66611t-0.14309-0.8388q0-0.58223 0.2171-1.1299 0.2171-0.54769 0.64637-0.98683 0.4046-0.4194 1.0263-0.68091t1.3717-0.26151q0.88321 0 1.3421 0.28125 0.46381 0.28124 0.46381 0.84374 0 0.53782-0.39966 0.92762-0.39967 0.38486-1.0855 0.57236-0.54276 0.16283-0.92762 0.2319-0.37993 0.06908-0.93255 0.12829 0.01 0.2171 0.0592 0.48848 0.0493 0.27138 0.14802 0.46381 0.11842 0.22204 0.33552 0.35526 0.21711 0.12829 0.55263 0.12829 0.58222 0 0.98682-0.22204 0.40954-0.22697 0.7796-0.71545l0.36019 0.30098q-0.44408 0.63157-1.1398 1.0115-0.69078 0.37499-1.4556 0.37499zm1.1151-3.9078q0-0.4194-0.15296-0.64144-0.15296-0.22697-0.42434-0.22697-0.37992 0-0.72038 0.6217-0.33552 0.61677-0.42927 1.5641 0.29112-0.03454 0.57729-0.08881 0.28618-0.05428 0.45394-0.12829 0.37006-0.16283 0.53289-0.4194 0.16283-0.25658 0.16283-0.68091z"/>
  <path d="m128.79 60.977-0.10855 0.44407q-0.48848 0.19243-0.77959 0.29605-0.29112 0.09868-0.67598 0.09868-0.58716 0-0.91281-0.29111-0.32566-0.29605-0.32566-0.73025 0-0.11842 0.01-0.30098 0.0148-0.1875 0.0839-0.46381l0.35526-1.3125q0.0543-0.21217 0.0789-0.37993 0.0296-0.1727 0.0296-0.28125 0-0.23684-0.11348-0.37006-0.11349-0.13322-0.38487-0.13322-0.16776 0-0.47861 0.13322-0.31085 0.12829-0.69571 0.48354l-0.81413 3.5624h-1.6332l0.70065-3.0345q0.0296-0.13816 0.074-0.36019 0.0493-0.22204 0.0493-0.37006 0-0.28124-0.11842-0.38486-0.11348-0.10855-0.4194-0.10855-0.15789 0-0.32565 0.04934-0.16283 0.04934-0.28125 0.09375l0.10855-0.44407q0.39967-0.16283 0.7648-0.27631 0.36512-0.11842 0.69077-0.11842 0.58223 0 0.86841 0.2319 0.29111 0.22697 0.38486 0.64144h0.0345q0.48355-0.43914 0.9967-0.68091 0.51808-0.24671 1.1003-0.24671 0.54769 0 0.8536 0.30098 0.31085 0.30098 0.31085 0.73025 0 0.11349-0.0197 0.32072-0.0148 0.2023-0.0789 0.4342l-0.37499 1.3865q-0.0493 0.1727-0.0888 0.39473t-0.0395 0.33552q0 0.28618 0.12335 0.3898 0.12829 0.10362 0.44407 0.10362 0.14803 0 0.33552-0.04934 0.1875-0.05428 0.27138-0.09375z"/>
  <path d="m4.4317 74.658q-0.67104 0-1.2434-0.19243-0.57236-0.1875-0.99669-0.55756-0.42927-0.37006-0.67104-0.90295-0.23684-0.53289-0.23684-1.199 0-0.98683 0.34539-1.8108 0.35032-0.82893 0.97202-1.4408 0.61183-0.60196 1.4605-0.93748 0.8536-0.34046 1.8404-0.34046 0.59703 0 1.1842 0.14802 0.5921 0.14309 0.88814 0.31085l0.36513-0.27138h0.42927l-0.54275 2.5559h-0.4342q-0.10855-1.1398-0.61183-1.7121-0.49835-0.57729-1.2927-0.57729-0.63157 0-1.125 0.37499-0.49341 0.37499-0.83387 0.97202-0.33552 0.58223-0.52302 1.3914-0.18256 0.80426-0.18256 1.5888 0 0.97696 0.37993 1.5543 0.38486 0.57236 1.1299 0.57236 0.4046 0 0.70065-0.13322 0.29605-0.13322 0.52302-0.32565l0.31085-1.3372q0.019737-0.08881 0.029605-0.16283 0.014802-0.07895 0.014802-0.12335 0-0.20723-0.25657-0.32072-0.25657-0.11842-0.73025-0.1875l0.08388-0.36019h3.7894l-0.08388 0.36019q-0.15296 0.0099-0.35526 0.04934-0.2023 0.03947-0.32565 0.07401-0.20723 0.06414-0.30098 0.2023-0.093749 0.13322-0.13322 0.29605l-0.19737 0.8536q-0.049341 0.2171-0.08388 0.39473-0.029605 0.17269-0.064144 0.37499-0.56742 0.32565-1.5049 0.57236-0.93255 0.24671-1.7171 0.24671z"/>
  <path d="m13.285 73.849h-0.03947q-0.1727 0.14802-0.33059 0.27138-0.15296 0.12335-0.3898 0.24671-0.20723 0.10855-0.43914 0.17763-0.22697 0.07401-0.50328 0.07401-0.85854 0-1.2927-0.50328-0.4342-0.50822-0.4342-1.3865 0-0.67598 0.24177-1.2681 0.24177-0.5921 0.64637-1.0411 0.40953-0.44407 0.95722-0.70065 0.54769-0.26151 1.1546-0.26151 0.44407 0 0.77466 0.10362 0.33552 0.10362 0.54769 0.28124l1.5148-0.31085 0.06908 0.07895-0.72532 3.0345q-0.03947 0.15296-0.08388 0.38486-0.04441 0.22697-0.04441 0.34539 0 0.28124 0.12829 0.3898 0.12829 0.10362 0.44407 0.10362 0.13816 0 0.33059-0.05428 0.19736-0.05428 0.27631-0.08881l-0.10855 0.44407q-0.48848 0.19243-0.78453 0.29605-0.29111 0.09868-0.67598 0.09868-0.50822 0-0.81413-0.19736-0.30098-0.2023-0.4194-0.51808zm0.58716-3.1282q0-0.10855-0.02961-0.25658-0.0296-0.14802-0.10362-0.25164-0.08882-0.12829-0.2319-0.19243-0.14309-0.06908-0.35526-0.06908-0.32565 0-0.60196 0.23684-0.27138 0.2319-0.48354 0.6217-0.20723 0.38486-0.32565 0.89801-0.11842 0.50822-0.11842 1.0411 0 0.24177 0.03454 0.44901 0.03947 0.20723 0.12335 0.35032 0.08881 0.15296 0.23684 0.23684 0.15296 0.08388 0.37993 0.08388 0.2319 0 0.44407-0.13322 0.2171-0.13816 0.39966-0.33552z"/>
  <path d="m22.192 70.484q0 0.22204-0.06414 0.42927-0.06414 0.20723-0.19243 0.35526-0.14309 0.16776-0.30098 0.25164-0.15789 0.07895-0.44407 0.07895-0.37006 0-0.58223-0.18256-0.21217-0.18256-0.21217-0.40953 0-0.21217 0.05921-0.36513 0.06414-0.15296 0.19737-0.46381-0.33059 0.13816-0.56742 0.34046-0.23684 0.19736-0.45394 0.45394l-0.77959 3.4934h-1.6332l0.68091-3.0345q0.0296-0.13816 0.07401-0.36019 0.04934-0.22204 0.04934-0.37006 0-0.28618-0.11348-0.3898-0.10855-0.10362-0.42434-0.10362-0.15789 0-0.32565 0.04934-0.16283 0.04934-0.28124 0.09375l0.10855-0.44407q0.39966-0.16283 0.76479-0.27631 0.36512-0.11842 0.69078-0.11842 0.58223 0 0.86841 0.2319 0.29111 0.22697 0.38486 0.64144h0.03454q0.48848-0.51808 0.82893-0.72038 0.34046-0.20723 0.73025-0.20723 0.4194 0 0.66117 0.26644 0.24177 0.26151 0.24177 0.75986z"/>
  <path d="m24.665 74.594q-0.5921 0-0.94735-0.28618-0.35526-0.29111-0.35526-0.73518 0-0.18256 0.02467-0.34539 0.02467-0.16283 0.07895-0.4194l0.61183-2.625h-0.90295l0.11842-0.50822h0.92268l0.35526-1.495h1.5987l-0.34539 1.495h1.3371l-0.11842 0.50822h-1.3322l-0.60196 2.625q-0.03454 0.13816-0.06908 0.33552-0.02961 0.19737-0.02961 0.25658 0 0.28125 0.15296 0.3898 0.15789 0.10855 0.47861 0.10855 0.15296 0 0.4194-0.05921 0.27138-0.05921 0.37993-0.09868l-0.10855 0.44407q-0.4342 0.19243-0.87334 0.30098-0.4342 0.10855-0.7944 0.10855z"/>
  <path d="m30.099 74.629q-0.5921 0-1.0411-0.16283-0.44407-0.15789-0.73519-0.44407-0.28618-0.28618-0.42927-0.66611t-0.14309-0.8388q0-0.58223 0.2171-1.1299 0.2171-0.54769 0.64637-0.98683 0.4046-0.4194 1.0263-0.68091 0.6217-0.26151 1.3717-0.26151 0.88321 0 1.3421 0.28124 0.46381 0.28125 0.46381 0.84374 0 0.53782-0.39966 0.92762-0.39966 0.38486-1.0855 0.57236-0.54276 0.16283-0.92762 0.2319-0.37993 0.06908-0.93255 0.12829 0.0099 0.2171 0.05921 0.48848 0.04934 0.27138 0.14802 0.46381 0.11842 0.22204 0.33552 0.35526 0.2171 0.12829 0.55262 0.12829 0.58223 0 0.98683-0.22204 0.40953-0.22697 0.77959-0.71545l0.36019 0.30098q-0.44407 0.63157-1.1398 1.0115-0.69078 0.37499-1.4556 0.37499zm1.1151-3.9078q0-0.4194-0.15296-0.64144-0.15296-0.22697-0.42434-0.22697-0.37993 0-0.72038 0.6217-0.33552 0.61677-0.42927 1.5641 0.29111-0.03454 0.57729-0.08881 0.28618-0.05428 0.45394-0.12829 0.37006-0.16283 0.53289-0.4194 0.16283-0.25658 0.16283-0.68091z"/>
  <path d="m40.388 73.711-0.10855 0.44407q-0.48848 0.19243-0.77959 0.29605-0.29111 0.09868-0.67598 0.09868-0.58716 0-0.91281-0.29111-0.32565-0.29605-0.32565-0.73025 0-0.11842 0.0099-0.30098 0.0148-0.1875 0.08388-0.46381l0.35526-1.3125q0.05427-0.21217 0.07895-0.37993 0.0296-0.1727 0.0296-0.28125 0-0.23684-0.11348-0.37006-0.11348-0.13322-0.38486-0.13322-0.16776 0-0.47861 0.13322-0.31085 0.12829-0.69571 0.48354l-0.81413 3.5624h-1.6332l0.70065-3.0345q0.02961-0.13816 0.07401-0.36019 0.04934-0.22204 0.04934-0.37006 0-0.28125-0.11842-0.38486-0.11348-0.10855-0.4194-0.10855-0.15789 0-0.32565 0.04934-0.16283 0.04934-0.28125 0.09375l0.10855-0.44407q0.39966-0.16283 0.76479-0.27631 0.36513-0.11842 0.69078-0.11842 0.58223 0 0.86841 0.2319 0.29111 0.22697 0.38486 0.64144h0.03454q0.48354-0.43914 0.99669-0.68091 0.51808-0.24671 1.1003-0.24671 0.54769 0 0.8536 0.30098 0.31085 0.30098 0.31085 0.73025 0 0.11348-0.01974 0.32072-0.0148 0.2023-0.07895 0.4342l-0.37499 1.3865q-0.04934 0.17269-0.08881 0.39473t-0.03947 0.33552q0 0.28618 0.12335 0.3898 0.12829 0.10362 0.44407 0.10362 0.14802 0 0.33552-0.04934 0.1875-0.05428 0.27138-0.09375z"/>
  <path d="m48.112 73.681h-0.03454q-0.51808 0.47368-0.98683 0.70065-0.46874 0.22697-1.0855 0.22697-0.54769 0-0.84867-0.30098-0.29605-0.30098-0.29605-0.73025 0-0.15296 0.0148-0.31085 0.01974-0.15789 0.09375-0.44407l0.37006-1.3865q0.03454-0.13816 0.07895-0.37499 0.04934-0.24177 0.04934-0.35526 0-0.27138-0.11348-0.37993-0.10855-0.11348-0.42927-0.11348-0.15789 0-0.32565 0.04934-0.16283 0.04934-0.28124 0.09375l0.10855-0.44407q0.39966-0.16283 0.76479-0.27631 0.36513-0.11842 0.69078-0.11842 0.58716 0 0.90295 0.29605 0.32072 0.29111 0.32072 0.72532 0 0.08881-0.01974 0.32565-0.01974 0.23684-0.07895 0.43914l-0.36019 1.3125q-0.04934 0.1727-0.07895 0.37499-0.02961 0.19737-0.02961 0.28618 0 0.2319 0.10855 0.37006 0.10855 0.13322 0.37499 0.13322 0.19243 0 0.50822-0.15789 0.32072-0.16283 0.63157-0.45887l0.81413-3.5624 1.574-0.06908 0.05921 0.06908-0.70065 3.0345q-0.03454 0.14309-0.08388 0.37993-0.04441 0.23684-0.04441 0.35032 0 0.28618 0.12335 0.3898 0.12829 0.10362 0.44407 0.10362 0.14802 0 0.33552-0.04934 0.1875-0.05427 0.27138-0.09375l-0.10855 0.44407q-0.48848 0.19243-0.77959 0.29605-0.29111 0.09868-0.67598 0.09868-0.54275 0-0.86841-0.24177-0.32565-0.24671-0.40953-0.63157z"/>
  <path d="m58.436 73.711-0.10855 0.44407q-0.48848 0.19243-0.77959 0.29605-0.29111 0.09868-0.67598 0.09868-0.58716 0-0.91281-0.29111-0.32565-0.29605-0.32565-0.73025 0-0.11842 0.0099-0.30098 0.0148-0.1875 0.08388-0.46381l0.35526-1.3125q0.05428-0.21217 0.07895-0.37993 0.0296-0.1727 0.0296-0.28125 0-0.23684-0.11348-0.37006-0.11348-0.13322-0.38486-0.13322-0.16776 0-0.47861 0.13322-0.31085 0.12829-0.69571 0.48354l-0.81413 3.5624h-1.6332l0.70065-3.0345q0.0296-0.13816 0.07401-0.36019 0.04934-0.22204 0.04934-0.37006 0-0.28125-0.11842-0.38486-0.11348-0.10855-0.4194-0.10855-0.15789 0-0.32565 0.04934-0.16283 0.04934-0.28125 0.09375l0.10855-0.44407q0.39966-0.16283 0.76479-0.27631 0.36513-0.11842 0.69078-0.11842 0.58223 0 0.86841 0.2319 0.29111 0.22697 0.38486 0.64144h0.03454q0.48354-0.43914 0.99669-0.68091 0.51808-0.24671 1.1003-0.24671 0.54769 0 0.8536 0.30098 0.31085 0.30098 0.31085 0.73025 0 0.11348-0.01974 0.32072-0.0148 0.2023-0.07895 0.4342l-0.37499 1.3865q-0.04934 0.17269-0.08882 0.39473-0.03947 0.22204-0.03947 0.33552 0 0.28618 0.12335 0.3898 0.12829 0.10362 0.44407 0.10362 0.14802 0 0.33552-0.04934 0.1875-0.05428 0.27138-0.09375z"/>
  <path d="m62.883 73.849h-0.03947q-0.17269 0.14802-0.33059 0.27138-0.15789 0.12335-0.4046 0.24671-0.2319 0.11842-0.45394 0.18256-0.2171 0.06908-0.50328 0.06908-0.85854 0-1.2927-0.50328-0.4342-0.50822-0.4342-1.3865 0-0.67598 0.23684-1.2681t0.64144-1.0411q0.39966-0.44407 0.94735-0.70065 0.54769-0.26151 1.1497-0.26151 0.45394 0 0.75986 0.09868 0.30592 0.09375 0.50822 0.25164l0.36513-1.6036q0.0148-0.06908 0.02467-0.14802 0.0148-0.08388 0.0148-0.13322 0-0.16283-0.08388-0.27631t-0.2319-0.17763q-0.13816-0.06414-0.31578-0.09375-0.17763-0.0296-0.3898-0.05428l0.08881-0.36512 2.768-0.12829 0.05428 0.07895-1.3273 5.7384q-0.03454 0.14309-0.08388 0.37993-0.04441 0.2319-0.04441 0.35032 0 0.28124 0.12335 0.3898 0.12829 0.10362 0.44407 0.10362 0.13816 0 0.33059-0.05428 0.19736-0.05428 0.27631-0.08881l-0.10855 0.44407q-0.48848 0.19243-0.77959 0.29605-0.29111 0.09868-0.67598 0.09868-0.50822 0-0.81413-0.19736-0.30098-0.2023-0.4194-0.51808zm0.58223-3.1578q0-0.12335-0.03454-0.25164-0.0296-0.13322-0.12335-0.25164-0.09375-0.12335-0.2319-0.19243-0.13816-0.07401-0.37499-0.07401-0.31578 0-0.5921 0.23684-0.27138 0.2319-0.48354 0.6365-0.19736 0.37499-0.31578 0.89308-0.11842 0.51315-0.11842 1.0608 0 0.24177 0.03454 0.44901 0.03947 0.20723 0.12335 0.35032 0.08881 0.15296 0.23684 0.23684 0.15296 0.08388 0.37993 0.08388 0.2319 0 0.45887-0.13322 0.2319-0.13816 0.41447-0.33552z"/>
  <path d="m76.251 72.221-0.65624 2.245h-6.4489l0.08388-0.36019q0.12335-0.0049 0.36513-0.03454 0.24671-0.03454 0.36513-0.07401 0.19736-0.06414 0.29605-0.19243 0.09868-0.12829 0.13816-0.30098l1.1299-4.8947q0.02467-0.10362 0.03454-0.17269 0.0099-0.06908 0.0099-0.10362 0-0.20723-0.21217-0.32072-0.20723-0.11842-0.68091-0.1875l0.08388-0.36019h3.8486l-0.08388 0.36019q-0.15789 0.0099-0.4046 0.04934-0.24671 0.03454-0.37499 0.07401-0.20723 0.06414-0.30098 0.20723-0.09375 0.13816-0.13322 0.29605l-1.0707 4.6529q-0.03454 0.14309-0.05427 0.28125-0.01974 0.13322-0.01974 0.20723 0 0.28618 0.20723 0.37006 0.21217 0.07895 0.85854 0.07895 0.39473 0 0.78453-0.05921t0.58223-0.2171q0.30592-0.24671 0.68091-0.70558 0.37499-0.46381 0.61183-0.8388z"/>
  <path d="m80.624 73.849h-0.03947q-0.17269 0.14802-0.33059 0.27138-0.15296 0.12335-0.3898 0.24671-0.20723 0.10855-0.43914 0.17763-0.22697 0.07401-0.50328 0.07401-0.85854 0-1.2927-0.50328-0.4342-0.50822-0.4342-1.3865 0-0.67598 0.24177-1.2681t0.64637-1.0411q0.40953-0.44407 0.95722-0.70065 0.54769-0.26151 1.1546-0.26151 0.44407 0 0.77466 0.10362 0.33552 0.10362 0.54769 0.28124l1.5148-0.31085 0.06908 0.07895-0.72532 3.0345q-0.03947 0.15296-0.08388 0.38486-0.04441 0.22697-0.04441 0.34539 0 0.28124 0.12829 0.3898 0.12829 0.10362 0.44407 0.10362 0.13816 0 0.33059-0.05428 0.19737-0.05428 0.27631-0.08881l-0.10855 0.44407q-0.48848 0.19243-0.78453 0.29605-0.29111 0.09868-0.67598 0.09868-0.50822 0-0.81413-0.19736-0.30098-0.2023-0.4194-0.51808zm0.58716-3.1282q0-0.10855-0.02961-0.25658-0.02961-0.14802-0.10362-0.25164-0.08881-0.12829-0.2319-0.19243-0.14309-0.06908-0.35526-0.06908-0.32565 0-0.60196 0.23684-0.27138 0.2319-0.48354 0.6217-0.20723 0.38486-0.32565 0.89801-0.11842 0.50822-0.11842 1.0411 0 0.24177 0.03454 0.44901 0.03947 0.20723 0.12335 0.35032 0.08881 0.15296 0.23684 0.23684 0.15296 0.08388 0.37993 0.08388 0.2319 0 0.44407-0.13322 0.2171-0.13816 0.39966-0.33552z"/>
  <path d="m90.903 73.711-0.10855 0.44407q-0.48848 0.19243-0.77959 0.29605-0.29111 0.09868-0.67598 0.09868-0.58716 0-0.91281-0.29111-0.32565-0.29605-0.32565-0.73025 0-0.11842 0.0099-0.30098 0.0148-0.1875 0.08388-0.46381l0.35526-1.3125q0.05427-0.21217 0.07895-0.37993 0.0296-0.1727 0.0296-0.28125 0-0.23684-0.11348-0.37006-0.11348-0.13322-0.38486-0.13322-0.16776 0-0.47861 0.13322-0.31085 0.12829-0.69571 0.48354l-0.81413 3.5624h-1.6332l0.70065-3.0345q0.02961-0.13816 0.07401-0.36019 0.04934-0.22204 0.04934-0.37006 0-0.28125-0.11842-0.38486-0.11348-0.10855-0.4194-0.10855-0.15789 0-0.32565 0.04934-0.16283 0.04934-0.28125 0.09375l0.10855-0.44407q0.39966-0.16283 0.76479-0.27631 0.36513-0.11842 0.69078-0.11842 0.58223 0 0.86841 0.2319 0.29111 0.22697 0.38486 0.64144h0.03454q0.48354-0.43914 0.99669-0.68091 0.51808-0.24671 1.1003-0.24671 0.54769 0 0.8536 0.30098 0.31085 0.30098 0.31085 0.73025 0 0.11348-0.01974 0.32072-0.0148 0.2023-0.07895 0.4342l-0.37499 1.3865q-0.04934 0.17269-0.08881 0.39473t-0.03947 0.33552q0 0.28618 0.12335 0.3898 0.12829 0.10362 0.44407 0.10362 0.14802 0 0.33552-0.04934 0.1875-0.05428 0.27138-0.09375z"/>
  <path d="m95.35 73.849h-0.03947q-0.1727 0.14802-0.33059 0.27138-0.15789 0.12335-0.4046 0.24671-0.2319 0.11842-0.45394 0.18256-0.2171 0.06908-0.50328 0.06908-0.85854 0-1.2927-0.50328-0.4342-0.50822-0.4342-1.3865 0-0.67598 0.23684-1.2681 0.23684-0.5921 0.64144-1.0411 0.39966-0.44407 0.94735-0.70065 0.54769-0.26151 1.1497-0.26151 0.45394 0 0.75986 0.09868 0.30592 0.09375 0.50822 0.25164l0.36512-1.6036q0.0148-0.06908 0.02467-0.14802 0.0148-0.08388 0.0148-0.13322 0-0.16283-0.08388-0.27631t-0.2319-0.17763q-0.13816-0.06414-0.31578-0.09375-0.17763-0.0296-0.3898-0.05428l0.08881-0.36512 2.768-0.12829 0.05428 0.07895-1.3273 5.7384q-0.03454 0.14309-0.08388 0.37993-0.04441 0.2319-0.04441 0.35032 0 0.28124 0.12335 0.3898 0.12829 0.10362 0.44407 0.10362 0.13816 0 0.33059-0.05428 0.19736-0.05428 0.27631-0.08881l-0.10855 0.44407q-0.48848 0.19243-0.77959 0.29605-0.29111 0.09868-0.67598 0.09868-0.50822 0-0.81413-0.19736-0.30098-0.2023-0.4194-0.51808zm0.58223-3.1578q0-0.12335-0.03454-0.25164-0.0296-0.13322-0.12335-0.25164-0.09375-0.12335-0.2319-0.19243-0.13816-0.07401-0.37499-0.07401-0.31578 0-0.5921 0.23684-0.27138 0.2319-0.48354 0.6365-0.19737 0.37499-0.31578 0.89308-0.11842 0.51315-0.11842 1.0608 0 0.24177 0.03454 0.44901 0.03947 0.20723 0.12335 0.35032 0.08881 0.15296 0.23684 0.23684 0.15296 0.08388 0.37993 0.08388 0.2319 0 0.45887-0.13322 0.2319-0.13816 0.41447-0.33552z"/>
  <path d="m100.94 74.629q-0.6217 0-1.0312-0.10362-0.4046-0.09868-0.64144-0.25658-0.24177-0.15789-0.33059-0.33552-0.08881-0.18256-0.08881-0.34046 0-0.28618 0.21217-0.49835 0.2171-0.2171 0.57236-0.2171 0.29605 0 0.49341 0.15296 0.2023 0.15296 0.33552 0.38486 0.12336 0.21217 0.20724 0.46874 0.0839 0.25658 0.11842 0.37993 0.55755 0 0.84373-0.23684 0.28618-0.24177 0.28618-0.65624 0-0.18256-0.0888-0.30592-0.0839-0.12335-0.22697-0.2171-0.14309-0.08881-0.36513-0.1727-0.22203-0.08388-0.43914-0.15789-0.59703-0.2023-0.94734-0.55756-0.34539-0.36019-0.34539-0.89308 0-0.31578 0.14309-0.5921 0.14802-0.28125 0.45887-0.51808 0.30591-0.22697 0.77465-0.36019 0.46875-0.13816 1.0954-0.13816 0.375 0 0.69571 0.04441 0.32072 0.04441 0.59703 0.16283 0.26151 0.11842 0.4046 0.31085 0.14803 0.1875 0.14803 0.45887 0 0.27138-0.20724 0.46874-0.2023 0.19243-0.53288 0.19243-0.28618 0-0.47861-0.14802-0.1875-0.14802-0.30592-0.35032-0.11842-0.20723-0.1875-0.42434-0.0691-0.22204-0.11348-0.37006-0.34539 0.01974-0.63157 0.25164-0.28125 0.22697-0.28125 0.56742 0 0.20723 0.0641 0.32565 0.0691 0.11842 0.18256 0.19736 0.12829 0.08881 0.32072 0.16776 0.19736 0.07401 0.48848 0.1727 0.67104 0.23684 1.0115 0.56742 0.34046 0.33059 0.34046 0.87334 0 0.35526-0.16776 0.68091-0.16283 0.32565-0.46874 0.54275-0.34046 0.23684-0.78453 0.35526-0.44407 0.12335-1.1299 0.12335z"/>
  <path d="m107.3 74.629q-1.1348 0-1.7714-0.56742-0.63157-0.56742-0.63157-1.5592 0-0.59703 0.2023-1.1299 0.2023-0.53782 0.6217-0.97696 0.3898-0.41447 1.0016-0.67598t1.3668-0.26151q0.87334 0 1.3322 0.32072 0.46381 0.32072 0.46381 0.88321 0 0.15296-0.0493 0.34046t-0.14803 0.31578q-0.12335 0.15789-0.27137 0.24177-0.14309 0.08388-0.43421 0.08388-0.38486 0-0.60196-0.1875-0.21217-0.19243-0.21217-0.39966 0-0.24671 0.10362-0.48848 0.10361-0.24177 0.26151-0.50822-0.0444-0.05428-0.18257-0.13322-0.13322-0.07895-0.35032-0.07895-0.57729 0-0.95722 0.70065-0.37993 0.69571-0.37993 1.7269 0 0.78453 0.28618 1.1891 0.29111 0.4046 0.824 0.4046 0.54276 0 0.90295-0.20723 0.36512-0.21217 0.74505-0.72038l0.35526 0.30098q-0.4046 0.62664-1.0707 1.0066t-1.4062 0.37993z"/>
  <path d="m117.17 73.721-0.10855 0.4342q-0.48848 0.19243-0.77959 0.29605-0.29112 0.09868-0.67598 0.09868-0.58716 0-0.91775-0.29111-0.32565-0.29605-0.32565-0.73025 0-0.13816 0.01-0.30592 0.0148-0.16776 0.0888-0.45888l0.35526-1.3125q0.0543-0.21217 0.079-0.37993 0.0296-0.1727 0.0296-0.28125 0-0.23684-0.11348-0.37006-0.11349-0.13322-0.38487-0.13322-0.16776 0-0.47861 0.13322-0.31085 0.12829-0.69571 0.48354l-0.81413 3.5624h-1.6332l1.4506-6.2811q0.0197-0.08388 0.0296-0.15789 0.01-0.07401 0.01-0.12335 0-0.17763-0.0592-0.28125t-0.17763-0.16776q-0.11842-0.06414-0.27138-0.08881-0.15295-0.02467-0.35525-0.04441l0.0888-0.36512 2.6003-0.12829 0.0543 0.07895-0.78946 3.4144h0.0345q0.45887-0.4046 0.95229-0.63157 0.49341-0.2319 1.0608-0.2319 0.54768 0 0.8536 0.30098 0.31085 0.30098 0.31085 0.73025 0 0.11348-0.0197 0.32072-0.0148 0.2023-0.0789 0.4342l-0.375 1.3865q-0.0493 0.17269-0.0888 0.39473t-0.0395 0.33552q0 0.28618 0.12335 0.39473 0.12829 0.10855 0.44407 0.10855 0.14803 0 0.33552-0.04934 0.1875-0.05428 0.27138-0.09375z"/>
  <path d="m121.59 73.849h-0.0395q-0.1727 0.14802-0.33059 0.27138-0.15296 0.12335-0.3898 0.24671-0.20723 0.10855-0.43914 0.17763-0.22697 0.07401-0.50328 0.07401-0.85854 0-1.2927-0.50328-0.4342-0.50822-0.4342-1.3865 0-0.67598 0.24177-1.2681t0.64637-1.0411q0.40953-0.44407 0.95722-0.70065 0.54769-0.26151 1.1546-0.26151 0.44407 0 0.77466 0.10362 0.33552 0.10362 0.54769 0.28124l1.5148-0.31085 0.0691 0.07895-0.72532 3.0345q-0.0395 0.15296-0.0839 0.38486-0.0444 0.22697-0.0444 0.34539 0 0.28124 0.12828 0.3898 0.12829 0.10362 0.44408 0.10362 0.13815 0 0.33058-0.05428 0.19737-0.05428 0.27631-0.08881l-0.10855 0.44407q-0.48848 0.19243-0.78452 0.29605-0.29112 0.09868-0.67598 0.09868-0.50821 0-0.81413-0.19736-0.30098-0.2023-0.4194-0.51808zm0.58716-3.1282q0-0.10855-0.0296-0.25658-0.0296-0.14802-0.10361-0.25164-0.0888-0.12829-0.23191-0.19243-0.14309-0.06908-0.35525-0.06908-0.32566 0-0.60197 0.23684-0.27137 0.2319-0.48354 0.6217-0.20724 0.38486-0.32565 0.89801-0.11842 0.50822-0.11842 1.0411 0 0.24177 0.0345 0.44901 0.0395 0.20723 0.12335 0.35032 0.0888 0.15296 0.23684 0.23684 0.15295 0.08388 0.37992 0.08388 0.23191 0 0.44408-0.13322 0.2171-0.13816 0.39966-0.33552z"/>
  <path d="m128.1 70.183q-0.24671 1.2187-0.42927 2.1167-0.17763 0.89308-0.42927 1.87-0.12335 0.47861-0.40953 0.93748-0.28125 0.46381-0.66611 0.79933-0.4046 0.35526-0.87827 0.55262-0.46875 0.19736-0.96709 0.19736-0.44901 0-0.72532-0.08881-0.28125-0.08881-0.43914-0.22697-0.15296-0.13816-0.20723-0.30592-0.0543-0.16776-0.0543-0.33059 0-0.28618 0.20724-0.50822 0.2023-0.2171 0.54769-0.2171 0.26644 0 0.4638 0.13816 0.19243 0.14309 0.33059 0.34046 0.13816 0.19243 0.24671 0.42927 0.10361 0.23684 0.16282 0.37006 0.20724-0.22697 0.3898-0.68584 0.18256-0.45394 0.34045-1.2138l0.88321-4.1743h-0.95722l0.11842-0.50822h0.94735l0.0839-0.37993q0.10361-0.46381 0.37499-0.90788 0.27631-0.449 0.66611-0.79933 0.37499-0.34539 0.86347-0.56249 0.49341-0.2171 0.98683-0.2171 0.42927 0 0.71051 0.08388 0.28618 0.07895 0.44901 0.22204 0.14802 0.13322 0.19736 0.30098 0.0543 0.16283 0.0543 0.32565 0 0.10855-0.0444 0.24177-0.0395 0.13322-0.12829 0.24177-0.10855 0.12335-0.2319 0.19243-0.11842 0.06908-0.35032 0.06908-0.26645 0-0.45888-0.13816-0.19243-0.14309-0.32565-0.33552-0.14309-0.2023-0.24177-0.4342-0.0987-0.2319-0.16283-0.37006-0.2023 0.2319-0.36513 0.67598-0.16282 0.44407-0.33552 1.2237l-0.12335 0.56742h1.2483l-0.11841 0.50822z"/>
  <path d="m131.44 74.594q-0.5921 0-0.94735-0.28618-0.35526-0.29111-0.35526-0.73518 0-0.18256 0.0247-0.34539 0.0247-0.16283 0.0789-0.4194l0.61183-2.625h-0.90295l0.11842-0.50822h0.92268l0.35526-1.495h1.5987l-0.34539 1.495h1.3372l-0.11842 0.50822h-1.3322l-0.60197 2.625q-0.0345 0.13816-0.0691 0.33552-0.0296 0.19737-0.0296 0.25658 0 0.28125 0.15296 0.3898 0.15789 0.10855 0.47861 0.10855 0.15296 0 0.4194-0.05921 0.27138-0.05921 0.37993-0.09868l-0.10855 0.44407q-0.43421 0.19243-0.87334 0.30098-0.43421 0.10855-0.7944 0.10855z"/>
  <path d="m136.32 74.629q-0.6217 0-1.0312-0.10362-0.4046-0.09868-0.64144-0.25658-0.24177-0.15789-0.33058-0.33552-0.0888-0.18256-0.0888-0.34046 0-0.28618 0.21217-0.49835 0.2171-0.2171 0.57236-0.2171 0.29605 0 0.49341 0.15296 0.2023 0.15296 0.33552 0.38486 0.12336 0.21217 0.20724 0.46874 0.0839 0.25658 0.11842 0.37993 0.55755 0 0.84373-0.23684 0.28618-0.24177 0.28618-0.65624 0-0.18256-0.0888-0.30592-0.0839-0.12335-0.22697-0.2171-0.14309-0.08881-0.36513-0.1727-0.22203-0.08388-0.43914-0.15789-0.59703-0.2023-0.94735-0.55756-0.34539-0.36019-0.34539-0.89308 0-0.31578 0.14309-0.5921 0.14803-0.28125 0.45888-0.51808 0.30591-0.22697 0.77465-0.36019 0.46875-0.13816 1.0954-0.13816 0.375 0 0.69571 0.04441 0.32072 0.04441 0.59703 0.16283 0.26151 0.11842 0.4046 0.31085 0.14803 0.1875 0.14803 0.45887 0 0.27138-0.20724 0.46874-0.2023 0.19243-0.53288 0.19243-0.28618 0-0.47861-0.14802-0.1875-0.14802-0.30592-0.35032-0.11842-0.20723-0.1875-0.42434-0.0691-0.22204-0.11348-0.37006-0.34539 0.01974-0.63157 0.25164-0.28125 0.22697-0.28125 0.56742 0 0.20723 0.0642 0.32565 0.0691 0.11842 0.18256 0.19736 0.12829 0.08881 0.32072 0.16776 0.19736 0.07401 0.48848 0.1727 0.67104 0.23684 1.0115 0.56742 0.34046 0.33059 0.34046 0.87334 0 0.35526-0.16776 0.68091-0.16283 0.32565-0.46874 0.54275-0.34046 0.23684-0.78453 0.35526-0.44407 0.12335-1.1299 0.12335z"/>
  <path d="m146.31 71.348q0 0.66117-0.23684 1.2631-0.2319 0.59703-0.6365 1.0362-0.4194 0.45394-0.94242 0.70065-0.52302 0.24671-1.1546 0.24671-0.47368 0-0.76479-0.09375-0.28618-0.08881-0.49835-0.25657l-0.30098 1.3125q-0.0148 0.05921-0.0296 0.13816-0.0148 0.08388-0.0148 0.11842 0 0.11348 0.0493 0.20723 0.0493 0.09375 0.14802 0.13816 0.10856 0.04934 0.35033 0.09375 0.24177 0.04934 0.39966 0.05921l-0.0789 0.34539h-3.5624l0.079-0.34539q0.12829-0.0099 0.32072-0.03947 0.19243-0.02467 0.29111-0.05427 0.16776-0.05428 0.25658-0.1727 0.0888-0.11348 0.12828-0.31085l0.97696-4.3026q0.0296-0.14309 0.074-0.36513 0.0494-0.22204 0.0494-0.36512 0-0.26151-0.10856-0.37499-0.10855-0.11842-0.42926-0.11842-0.14803 0-0.32072 0.04934-0.1727 0.04934-0.28618 0.09375l0.10855-0.44407q0.39966-0.16283 0.76479-0.27631 0.36512-0.11842 0.69078-0.11842 0.27137 0 0.47861 0.05428 0.20723 0.04934 0.36512 0.16283 0.13322 0.09375 0.2171 0.22697 0.0888 0.13322 0.14803 0.27138h0.0395q0.45394-0.39473 0.88321-0.58223t0.824-0.1875q0.85854 0 1.2878 0.50822 0.4342 0.50328 0.4342 1.3816zm-2.1957 1.944q0.21217-0.42927 0.32072-0.90295 0.10855-0.47368 0.10855-1.0608 0-0.24177-0.0345-0.44407-0.0345-0.20723-0.12335-0.35526-0.0888-0.15296-0.24177-0.23684-0.14802-0.08388-0.37499-0.08388-0.26151 0-0.51315 0.16283-0.25165 0.16283-0.37006 0.30592l-0.61184 2.7088q0 0.34046 0.19737 0.56742 0.19736 0.22204 0.56742 0.22204 0.30592 0 0.58717-0.23684 0.28618-0.23684 0.48847-0.64637z"/>
  <path d="m150.21 70.183q-0.24671 1.2187-0.42927 2.1167-0.17763 0.89308-0.42927 1.87-0.12336 0.47861-0.40954 0.93748-0.28124 0.46381-0.6661 0.79933-0.4046 0.35526-0.87828 0.55262-0.46874 0.19736-0.96709 0.19736-0.449 0-0.72532-0.08881-0.28124-0.08881-0.43913-0.22697-0.15296-0.13816-0.20724-0.30592-0.0543-0.16776-0.0543-0.33059 0-0.28618 0.20723-0.50822 0.2023-0.2171 0.54769-0.2171 0.26644 0 0.46381 0.13816 0.19243 0.14309 0.33058 0.34046 0.13816 0.19243 0.24671 0.42927 0.10362 0.23684 0.16283 0.37006 0.20723-0.22697 0.38979-0.68584 0.18257-0.45394 0.34046-1.2138l0.88321-4.1743h-0.95722l0.11842-0.50822h0.94735l0.0839-0.37993q0.10362-0.46381 0.37499-0.90788 0.27631-0.449 0.66611-0.79933 0.37499-0.34539 0.86347-0.56249 0.49342-0.2171 0.98683-0.2171 0.42927 0 0.71051 0.08388 0.28618 0.07895 0.44901 0.22204 0.14802 0.13322 0.19737 0.30098 0.0543 0.16283 0.0543 0.32565 0 0.10855-0.0444 0.24177-0.0395 0.13322-0.12828 0.24177-0.10855 0.12335-0.23191 0.19243-0.11842 0.06908-0.35032 0.06908-0.26644 0-0.45887-0.13816-0.19244-0.14309-0.32566-0.33552-0.14309-0.2023-0.24177-0.4342-0.0987-0.2319-0.16283-0.37006-0.2023 0.2319-0.36512 0.67598-0.16283 0.44407-0.33552 1.2237l-0.12336 0.56742h1.2483l-0.11842 0.50822z"/>
  <path d="m155.21 66.907-1.3273 5.7729q-0.0345 0.14309-0.0839 0.37993-0.0444 0.23684-0.0444 0.35032 0 0.28618 0.14309 0.3898t0.47368 0.10362q0.12335 0 0.33552-0.04934 0.21216-0.05428 0.30098-0.09375l-0.10855 0.44407q-0.48848 0.19243-0.79933 0.29111-0.31085 0.10362-0.70558 0.10362-0.5921 0-0.93255-0.28618-0.34046-0.29111-0.34046-0.73518 0-0.18256 0.0296-0.37993 0.0345-0.19736 0.074-0.37993l1.0658-4.6331q0.0197-0.08388 0.0296-0.15789 0.01-0.07401 0.01-0.12335 0-0.17763-0.0592-0.28125t-0.17762-0.16776q-0.11842-0.06414-0.27138-0.08881t-0.35526-0.04441l0.0888-0.36512 2.6003-0.12829z"/>
  <path d="m158.35 74.629q-0.5921 0-1.0411-0.16283-0.44408-0.15789-0.73519-0.44407-0.28618-0.28618-0.42927-0.66611t-0.14309-0.8388q0-0.58223 0.2171-1.1299 0.21711-0.54769 0.64637-0.98683 0.4046-0.4194 1.0263-0.68091t1.3717-0.26151q0.88321 0 1.3421 0.28124 0.4638 0.28125 0.4638 0.84374 0 0.53782-0.39966 0.92762-0.39967 0.38486-1.0855 0.57236-0.54275 0.16283-0.92762 0.2319-0.37992 0.06908-0.93255 0.12829 0.01 0.2171 0.0592 0.48848 0.0493 0.27138 0.14803 0.46381 0.11842 0.22204 0.33552 0.35526 0.2171 0.12829 0.55262 0.12829 0.58223 0 0.98683-0.22204 0.40953-0.22697 0.77959-0.71545l0.36019 0.30098q-0.44407 0.63157-1.1398 1.0115-0.69078 0.37499-1.4556 0.37499zm1.1151-3.9078q0-0.4194-0.15296-0.64144-0.15295-0.22697-0.42433-0.22697-0.37993 0-0.72038 0.6217-0.33553 0.61677-0.42927 1.5641 0.29111-0.03454 0.57729-0.08881 0.28618-0.05428 0.45394-0.12829 0.37006-0.16283 0.53289-0.4194 0.16282-0.25658 0.16282-0.68091z"/>
  <path d="m165.51 73.948h-0.0395q-0.12336 0.09868-0.28618 0.21217-0.16283 0.11348-0.35033 0.19737-0.22697 0.10855-0.42433 0.16283-0.19737 0.05921-0.49835 0.05921-0.85854 0-1.3224-0.50328-0.45887-0.50328-0.45887-1.3816 0-0.66611 0.23684-1.2483 0.23684-0.58716 0.64143-1.0362 0.39967-0.43914 0.94242-0.69571 0.54769-0.25658 1.1546-0.25658 0.44407 0 0.78453 0.09375 0.34045 0.09375 0.58716 0.29111l1.5049-0.31085 0.0691 0.07895-0.83881 4.0114q-0.19736 0.89801-0.54768 1.4802-0.35033 0.58716-0.81414 0.93255-0.47367 0.35032-0.99176 0.48354-0.51315 0.13816-1.0806 0.13816-0.6069 0-0.99176-0.09375-0.37993-0.08881-0.58223-0.2319-0.19736-0.13816-0.27138-0.31085-0.0691-0.16776-0.0691-0.33059 0-0.28125 0.19736-0.50822 0.2023-0.22204 0.55756-0.22204 0.26644 0 0.47367 0.14309 0.21217 0.14309 0.37006 0.34539 0.14309 0.18256 0.26645 0.4194 0.12335 0.24177 0.18749 0.3898 0.22697-0.03947 0.44901-0.12829 0.22697-0.08882 0.4342-0.33552 0.19737-0.23684 0.375-0.65624 0.18256-0.4194 0.33552-1.1891zm0.66117-3.2319q0-0.12335-0.0345-0.25164-0.0296-0.13322-0.12335-0.25164-0.0937-0.12335-0.2319-0.19243-0.13816-0.07401-0.375-0.07401-0.32072 0-0.59209 0.2319-0.27138 0.22697-0.47861 0.61183-0.2023 0.37993-0.32072 0.88814-0.11842 0.50328-0.11842 1.0411 0 0.23684 0.0395 0.43914 0.0444 0.19736 0.14802 0.35526t0.26645 0.23684q0.16776 0.07895 0.37499 0.07895 0.24177 0 0.49341-0.14802 0.25658-0.14802 0.40954-0.31578z"/>
  <path d="m171.6 74.629q-0.5921 0-1.0411-0.16283-0.44407-0.15789-0.73518-0.44407-0.28618-0.28618-0.42927-0.66611t-0.14309-0.8388q0-0.58223 0.2171-1.1299 0.2171-0.54769 0.64637-0.98683 0.4046-0.4194 1.0263-0.68091t1.3717-0.26151q0.88321 0 1.3421 0.28124 0.46381 0.28125 0.46381 0.84374 0 0.53782-0.39966 0.92762-0.39967 0.38486-1.0855 0.57236-0.54276 0.16283-0.92762 0.2319-0.37993 0.06908-0.93255 0.12829 0.01 0.2171 0.0592 0.48848 0.0493 0.27138 0.14803 0.46381 0.11841 0.22204 0.33552 0.35526 0.2171 0.12829 0.55262 0.12829 0.58223 0 0.98682-0.22204 0.40954-0.22697 0.7796-0.71545l0.36019 0.30098q-0.44407 0.63157-1.1398 1.0115-0.69077 0.37499-1.4556 0.37499zm1.1151-3.9078q0-0.4194-0.15296-0.64144-0.15296-0.22697-0.42433-0.22697-0.37993 0-0.72039 0.6217-0.33552 0.61677-0.42927 1.5641 0.29112-0.03454 0.5773-0.08881 0.28618-0.05428 0.45394-0.12829 0.37006-0.16283 0.53288-0.4194 0.16283-0.25658 0.16283-0.68091z"/>
 </g>
</svg>
